<?xml version="1.0" encoding="utf-8"?>
<!-- Generator: Adobe Illustrator 28.3.0, SVG Export Plug-In . SVG Version: 6.00 Build 0)  -->
<svg version="1.1" id="Layer_1" xmlns="http://www.w3.org/2000/svg" xmlns:xlink="http://www.w3.org/1999/xlink" x="0px" y="0px"
	 viewBox="0 0 100 100" style="enable-background:new 0 0 100 100;" xml:space="preserve">
<style type="text/css">
	.st0{fill:#FFFFFF;}
	.st1{fill:none;stroke:#FFFFFF;stroke-width:5;stroke-linecap:round;stroke-linejoin:round;stroke-miterlimit:10;}
	.st2{fill:none;stroke:#FFFFFF;stroke-width:4;stroke-linecap:round;stroke-linejoin:round;}
	.st3{fill:#211F1F;}
</style>
<path class="st0" d="M-231-56.4c-0.6,0-1.3-0.2-1.8-0.7c-1-1-1-2.6,0-3.5l3.1-3.1c1-1,2.6-1,3.5,0c1,1,1,2.6,0,3.5l-3.1,3.1
	C-229.7-56.7-230.3-56.4-231-56.4z"/>
<path class="st0" d="M-170.6-56.4c-0.6,0-1.3-0.2-1.8-0.7l-3.1-3.1c-1-1-1-2.6,0-3.5c1-1,2.6-1,3.5,0l3.1,3.1c1,1,1,2.6,0,3.5
	C-169.3-56.7-170-56.4-170.6-56.4z"/>
<line class="st1" x1="-4.6" y1="-125.5" x2="84.3" y2="-125.5"/>
<path class="st0" d="M40.6-56.8c-1.4,0-2.5-1.1-2.5-2.5v-18.2c0-1.4,1.1-2.5,2.5-2.5s2.5,1.1,2.5,2.5v18.2
	C43.1-57.9,42-56.8,40.6-56.8z"/>
<path class="st0" d="M70.1-62.6c-0.6,0-1.3-0.2-1.8-0.7L55.5-76.1c-1-1-1-2.6,0-3.5c1-1,2.6-1,3.5,0l12.8,12.8c1,1,1,2.6,0,3.5
	C71.4-62.8,70.7-62.6,70.1-62.6z"/>
<path class="st0" d="M11.6-62.6c-0.6,0-1.3-0.2-1.8-0.7c-1-1-1-2.6,0-3.5l12.8-12.8c1-1,2.6-1,3.5,0c1,1,1,2.6,0,3.5L13.4-63.3
	C12.9-62.8,12.2-62.6,11.6-62.6z"/>
<path class="st0" d="M39.6-84.8c-21.9,0-39.6-17.8-39.6-39.6c0-1.4,1.1-2.5,2.5-2.5s2.5,1.1,2.5,2.5c0,19.1,15.5,34.6,34.6,34.6
	s34.6-15.5,34.6-34.6c0-1.4,1.1-2.5,2.5-2.5s2.5,1.1,2.5,2.5C79.2-102.6,61.4-84.8,39.6-84.8z"/>
<path class="st0" d="M550.7-63.8c-0.6,0-1.3-0.2-1.8-0.7l-70.3-70.3c-1-1-1-2.6,0-3.5c1-1,2.6-1,3.5,0l70.3,70.3c1,1,1,2.6,0,3.5
	C552-64,551.4-63.8,550.7-63.8z"/>
<path class="st0" d="M-320.3-53c-24.1,0-43.8-19.6-43.8-43.8c0-18.2,11-34.2,27.9-40.8c1.3-0.5,2.7,0.1,3.2,1.4
	c0.5,1.3-0.1,2.7-1.4,3.2c-15,5.8-24.7,20-24.7,36.1c0,21.4,17.4,38.8,38.8,38.8s38.8-17.4,38.8-38.8c0-15.9-9.5-30-24.3-36
	c-1.3-0.5-1.9-2-1.4-3.3c0.5-1.3,2-1.9,3.3-1.4c16.7,6.7,27.4,22.6,27.4,40.6C-276.6-72.6-296.2-53-320.3-53z"/>
<path class="st0" d="M-320.3-86.7c-1.4,0-2.5-1.1-2.5-2.5V-143c0-1.4,1.1-2.5,2.5-2.5s2.5,1.1,2.5,2.5v53.8
	C-317.8-87.8-318.9-86.7-320.3-86.7z"/>
<path class="st0" d="M-157.6-61.3h-85.6c-1.4,0-2.5-1.1-2.5-2.5v-63.9c0-1.4,1.1-2.5,2.5-2.5h85.6c1.4,0,2.5,1.1,2.5,2.5v63.9
	C-155.1-62.4-156.2-61.3-157.6-61.3z M-240.6-66.3h80.6v-58.9h-80.6V-66.3z"/>
<text transform="matrix(1 0 0 1 -204.7318 -83.2986)" class="st0" style="font-family:'BernardMT-Condensed'; font-size:32.8555px;">i</text>
<path class="st0" d="M-40-59.5h-80.6c-1.4,0-2.5-1.1-2.5-2.5v-65.7c0-1.4,1.1-2.5,2.5-2.5H-40c1.4,0,2.5,1.1,2.5,2.5V-62
	C-37.5-60.6-38.6-59.5-40-59.5z M-118.1-64.5h75.6v-60.7h-75.6V-64.5z"/>
<line class="st1" x1="-100.1" y1="-116.3" x2="-109.6" y2="-105"/>
<path class="st0" d="M-107.5-86.5c-0.5,0-1.1-0.2-1.6-0.5c-1.1-0.9-1.3-2.4-0.4-3.5l21.1-26.6c0.9-1.1,2.4-1.3,3.5-0.4
	c1.1,0.9,1.3,2.4,0.4,3.5l-21.1,26.6C-106-86.9-106.7-86.5-107.5-86.5z"/>
<line class="st1" x1="740.2" y1="-117.8" x2="732.4" y2="-108.5"/>
<path class="st0" d="M736.3-90.2c-0.5,0-1.1-0.2-1.6-0.5c-1.1-0.9-1.3-2.4-0.4-3.5l17.3-21.8c0.9-1.1,2.4-1.3,3.5-0.4
	c1.1,0.9,1.3,2.4,0.4,3.5l-17.3,21.8C737.8-90.5,737-90.2,736.3-90.2z"/>
<path class="st0" d="M166.2-59.3h-11.4c-1.4,0-2.5-1.1-2.5-2.5v-74.9c0-1.4,1.1-2.5,2.5-2.5h11.4c1.4,0,2.5,1.1,2.5,2.5v74.9
	C168.7-60.4,167.6-59.3,166.2-59.3z M157.3-64.3h6.4v-69.9h-6.4V-64.3z"/>
<circle class="st1" cx="127.9" cy="-132.6" r="0.4"/>
<circle class="st1" cx="138.5" cy="-119.8" r="4.7"/>
<circle class="st1" cx="121.3" cy="-106" r="3.3"/>
<path class="st0" d="M138.5-86.6c-2.3,0-4.1-1.9-4.1-4.1s1.9-4.1,4.1-4.1s4.1,1.9,4.1,4.1S140.7-86.6,138.5-86.6z M138.5-91.6
	c-0.5,0-0.9,0.4-0.9,0.9s0.4,0.9,0.9,0.9c0.5,0,0.9-0.4,0.9-0.9S138.9-91.6,138.5-91.6z"/>
<path class="st0" d="M125.6-64.2c-4.6,0-8.4-3.8-8.4-8.4s3.8-8.4,8.4-8.4c4.6,0,8.4,3.8,8.4,8.4S130.3-64.2,125.6-64.2z M125.6-76.1
	c-1.9,0-3.4,1.5-3.4,3.4s1.5,3.4,3.4,3.4s3.4-1.5,3.4-3.4S127.5-76.1,125.6-76.1z"/>
<path class="st0" d="M180.9-102.1c1.8-0.3,3.6,0.3,5.2,1.2c2.9,1.6,5.8,2.5,9,0.8c1.1-0.6,2.4-0.6,3.1,0.6c1,1.7-0.7,2.5-1.7,3
	c-3.7,1.9-7.4,1.7-11-0.4c-2.4-1.4-5-1.9-7.6-0.7c-1.5,0.6-3.2,1.1-3.9-0.7c-0.7-1.9,1.2-2.4,2.5-3
	C177.8-101.9,179.3-102.2,180.9-102.1z"/>
<path class="st0" d="M192.7-117.1c-3,0.1-4.8-0.1-6.5-1c-3-1.7-6.1-2.7-9.4-0.7c-1.3,0.8-2.3,0.2-2.9-0.8c-0.8-1.4,0.4-2.1,1.4-2.7
	c3.6-2,7.3-2,10.9-0.1c2.6,1.4,5.3,2,8.1,0.9c1.5-0.6,3.1-1.2,3.8,0.6c0.9,2.3-1.4,2.7-2.8,3.2C194.2-117.2,192.8-117.1,192.7-117.1
	z"/>
<path class="st0" d="M181.2-80.5c2.1,0.1,4,0.6,5.7,1.6c2.4,1.4,5,1.7,7.6,0.5c1.5-0.7,3-1.2,3.7,0.7c0.7,2-1.2,2.6-2.5,3
	c-3.4,1.2-6.8,1.2-10.1-0.5c-2.6-1.4-5.3-1.9-8.1-0.7c-1.6,0.7-3.1,1-3.7-0.8c-0.6-1.9,1.2-2.5,2.6-3C178-80,179.6-80.2,181.2-80.5z
	"/>
<path class="st0" d="M279.7-51.6c-26.5,0-48-21.5-48-48s21.5-48,48-48c1.4,0,2.5,1.1,2.5,2.5v22.7c0,1.4-1.1,2.5-2.5,2.5
	s-2.5-1.1-2.5-2.5v-20.2c-22.5,1.3-40.5,20.1-40.5,42.9c0,23.7,19.3,43,43,43s43-19.3,43-43c0-17.5-10.5-33.2-26.7-39.8
	c-1.3-0.5-1.9-2-1.4-3.3c0.5-1.3,2-1.9,3.3-1.4c18.1,7.4,29.8,24.9,29.8,44.4C327.7-73.2,306.1-51.6,279.7-51.6z"/>
<path class="st0" d="M296.9-85.4h-34.5c-1.4,0-2.5-1.1-2.5-2.5V-107c0-9.8,8-17.9,17.9-17.9h3.8c9.8,0,17.9,8,17.9,17.9v19.1
	C299.4-86.5,298.3-85.4,296.9-85.4z M264.9-90.4h29.5V-107c0-7.1-5.8-12.9-12.9-12.9h-3.8c-7.1,0-12.9,5.8-12.9,12.9V-90.4z"/>
<path class="st0" d="M270.6-67.1c-1.4,0-2.5-1.1-2.5-2.5v-11.2c0-1.4,1.1-2.5,2.5-2.5s2.5,1.1,2.5,2.5v11.2
	C273.1-68.2,272-67.1,270.6-67.1z"/>
<path class="st0" d="M289.5-67.1c-1.4,0-2.5-1.1-2.5-2.5v-11.2c0-1.4,1.1-2.5,2.5-2.5s2.5,1.1,2.5,2.5v11.2
	C292-68.2,290.8-67.1,289.5-67.1z"/>
<line class="st1" x1="399.8" y1="-143.8" x2="399.8" y2="-132.7"/>
<path class="st0" d="M399.8-51.2c-1.4,0-2.5-1.1-2.5-2.5v-11.2c0-1.4,1.1-2.5,2.5-2.5s2.5,1.1,2.5,2.5v11.2
	C402.3-52.3,401.2-51.2,399.8-51.2z"/>
<path class="st0" d="M275.6-93.2c-0.6,0-1.3-0.2-1.8-0.7c-1-1-1-2.6,0-3.5l5.9-5.9h-6.2c-1,0-1.9-0.6-2.3-1.5
	c-0.4-0.9-0.2-2,0.5-2.7l8.3-8.8c0.9-1,2.5-1,3.5-0.1c1,0.9,1,2.5,0.1,3.5l-4.3,4.6h6.4c1,0,1.9,0.6,2.3,1.5c0.4,0.9,0.2,2-0.5,2.7
	l-10.1,10.1C276.9-93.4,276.3-93.2,275.6-93.2z"/>
<path class="st0" d="M399.8-69.3c-16.1,0-29.2-13.1-29.2-29.2c0-16.1,13.1-29.2,29.2-29.2S429-114.6,429-98.5
	C429-82.4,415.9-69.3,399.8-69.3z M399.8-122.7c-13.3,0-24.2,10.9-24.2,24.2s10.9,24.2,24.2,24.2S424-85.1,424-98.5
	S413.1-122.7,399.8-122.7z"/>
<line class="st1" x1="444.9" y1="-98.5" x2="433.7" y2="-98.5"/>
<line class="st1" x1="365.9" y1="-98.5" x2="354.7" y2="-98.5"/>
<path class="st0" d="M431.7-64.4c-0.6,0-1.3-0.2-1.8-0.7L422-73c-1-1-1-2.6,0-3.5c1-1,2.6-1,3.5,0l7.9,7.9c1,1,1,2.6,0,3.5
	C432.9-64.6,432.3-64.4,431.7-64.4z"/>
<line class="st1" x1="375.8" y1="-122.8" x2="367.9" y2="-130.6"/>
<line class="st1" x1="432.1" y1="-131" x2="424.2" y2="-123.2"/>
<path class="st0" d="M367.8-64.1c-0.6,0-1.3-0.2-1.8-0.7c-1-1-1-2.6,0-3.5l7.9-7.9c1-1,2.6-1,3.5,0c1,1,1,2.6,0,3.5l-7.9,7.9
	C369.1-64.4,368.4-64.1,367.8-64.1z"/>
<polyline class="st1" points="532.4,-97.9 532.4,-141.6 511.3,-120.5 "/>
<path class="st0" d="M532.4-52.9c-0.7,0-1.3-0.3-1.8-0.7l-30.5-30.5h-23.2c-1.4,0-2.5-1.1-2.5-2.5v-25.8c0-1.4,1.1-2.5,2.5-2.5h26.3
	c1.4,0,2.5,1.1,2.5,2.5s-1.1,2.5-2.5,2.5h-23.8v20.8h21.7c0.7,0,1.3,0.3,1.8,0.7l27,27v-22c0-1.4,1.1-2.5,2.5-2.5s2.5,1.1,2.5,2.5
	v28.1c0,1-0.6,1.9-1.5,2.3C533.1-53,532.7-52.9,532.4-52.9z"/>
<line class="st1" x1="563.9" y1="-97.9" x2="552.8" y2="-97.9"/>
<line class="st1" x1="551.1" y1="-130.5" x2="543.2" y2="-122.6"/>
<g>
	<g>
		<path class="st2" d="M655.5-127.6c0.1-2.4,1.1-4.8,3-6.6c4-4,10.4-4,14.3,0s4,10.4,0,14.3c-2.8,2.8-6.9,3.6-10.5,2.4"/>
		<g>
			<polygon class="st0" points="660.7,-128.9 655.1,-120.2 650.4,-129.4 			"/>
		</g>
		<g>
			<polygon class="st0" points="662.4,-117.6 662.3,-117.5 662.3,-117.4 662.3,-117.5 662.2,-117.6 662.3,-117.6 			"/>
		</g>
	</g>
</g>
<g>
	<g>
		<path class="st3" d="M665.1-266.4c-1.3,0-2.7-0.2-3.9-0.7c-1-0.4-1.6-1.5-1.2-2.5c0.4-1,1.5-1.6,2.5-1.2c3,1,6.2,0.3,8.4-1.9
			c3.2-3.2,3.2-8.3,0-11.5c-1.5-1.5-3.6-2.4-5.7-2.4c-2.2,0-4.2,0.8-5.7,2.4c-1.4,1.4-2.3,3.3-2.4,5.3c-0.1,1.1-1,2-2.1,1.9
			c-1.1-0.1-1.9-1-1.9-2.1c0.2-3,1.4-5.8,3.5-7.9c4.7-4.7,12.4-4.7,17.1,0c4.7,4.7,4.7,12.4,0,17.1
			C671.4-267.6,668.3-266.4,665.1-266.4z"/>
		<g>
			<polygon class="st3" points="660.3,-280.3 654.6,-271.6 649.9,-280.8 			"/>
		</g>
		<g>
			<polygon class="st3" points="661.9,-269 661.8,-268.9 661.9,-268.8 661.8,-268.9 661.8,-269 661.9,-269 			"/>
		</g>
	</g>
</g>
<circle class="st0" cx="607" cy="-63.9" r="6.9"/>
<path class="st0" d="M629.2-64.4c-1.3,0-2.3-0.9-2.5-2.2c-1.1-9.5-8.7-17.1-18.3-18c-1.4-0.1-2.4-1.4-2.3-2.7
	c0.1-1.4,1.4-2.4,2.7-2.3c11.9,1.1,21.4,10.5,22.8,22.4c0.2,1.4-0.8,2.6-2.2,2.8C629.4-64.4,629.3-64.4,629.2-64.4z"/>
<path class="st0" d="M647.6-64.9c-1.3,0-2.5-1.1-2.5-2.4c-0.5-19.9-16.6-35.8-36.5-36.2c-1.4,0-2.5-1.2-2.5-2.5
	c0-1.4,1.2-2.5,2.5-2.5c22.6,0.4,40.8,18.4,41.4,41C650.1-66.1,649-64.9,647.6-64.9C647.6-64.9,647.6-64.9,647.6-64.9z"/>
<path class="st0" d="M667.1-64.4c-1.3,0-2.4-1-2.5-2.3c-1.9-30-26.1-54.1-56.1-56.1c-1.4-0.1-2.4-1.3-2.3-2.7
	c0.1-1.4,1.3-2.4,2.7-2.3c32.5,2.1,58.6,28.3,60.7,60.8c0.1,1.4-1,2.6-2.3,2.7C667.2-64.4,667.1-64.4,667.1-64.4z"/>
<path class="st0" d="M760.5-52c-0.4,0-0.9-0.1-1.2-0.3L733-67.5c-8.5-4.9-13.7-14-13.7-23.8v-30.3c0-0.9,0.5-1.7,1.2-2.2l38.7-22.4
	c0.8-0.4,1.7-0.4,2.5,0l38.7,22.4c0.8,0.4,1.2,1.3,1.2,2.2v30.3c0,9.8-5.3,18.9-13.7,23.8l-26.3,15.2C761.4-52.1,761-52,760.5-52z
	 M724.3-120.1v28.9c0,8,4.3,15.4,11.2,19.4l25,14.4l25-14.4c6.9-4,11.2-11.4,11.2-19.4v-28.9L760.5-141L724.3-120.1z"/>
<path class="st0" d="M760.5-135.1l30.3,17.5v25c0,6.2-3.3,11.9-8.7,15l-21.6,12.5V-135.1z"/>
<path class="st0" d="M910-56.4h-50.1c-1.4,0-2.5-1.1-2.5-2.5v-19.7l-20.5-50c-2.2-5.3,0.1-11.5,5.3-14.2c2.8-1.4,6.1-1.6,9-0.5
	c2.9,1.1,5.3,3.4,6.4,6.3l14.4,36.6l31.5-3.9c4.7-0.6,9.3,1.4,12.2,5.1c3.7,4.8,3.8,11.5,0.2,16.3l-3.4,4.6v19.4
	C912.5-57.5,911.4-56.4,910-56.4z M862.4-61.4h45.1V-79c0-0.5,0.2-1.1,0.5-1.5l3.9-5.3c2.3-3,2.2-7.2-0.1-10.2
	c-1.8-2.3-4.8-3.5-7.7-3.2l-33.5,4.1c-1.1,0.1-2.2-0.5-2.6-1.6L852.9-135c-0.6-1.6-1.9-2.9-3.5-3.5c-1.6-0.6-3.4-0.5-4.9,0.3
	c-2.8,1.4-4.1,4.9-2.9,7.8L862.2-80c0.1,0.3,0.2,0.6,0.2,0.9V-61.4z"/>
<path class="st0" d="M901.3-77.5h-33.2c-1.4,0-2.5-1.1-2.5-2.5s1.1-2.5,2.5-2.5h33.2c1.4,0,2.5,1.1,2.5,2.5S902.7-77.5,901.3-77.5z"
	/>
<path class="st0" d="M1017.1-56.4H967c-1.4,0-2.5-1.1-2.5-2.5v-19.4l-3.4-4.6c-3.6-4.8-3.5-11.5,0.2-16.3c2.9-3.7,7.6-5.6,12.2-5.1
	l31.5,3.9l14.4-36.6c1.1-2.9,3.5-5.2,6.4-6.3c2.9-1.1,6.2-0.9,9,0.5c5.1,2.6,7.4,8.8,5.3,14.1l-20.5,50v19.7
	C1019.6-57.5,1018.5-56.4,1017.1-56.4z M969.5-61.4h45.1V-79c0-0.3,0.1-0.6,0.2-0.9l20.7-50.5c1.2-2.9-0.1-6.4-2.9-7.8
	c-1.6-0.8-3.3-0.9-5-0.3c-1.6,0.6-2.9,1.9-3.5,3.5L1009-96.6c-0.4,1.1-1.5,1.7-2.6,1.6l-33.5-4.1c-2.9-0.4-5.9,0.9-7.7,3.2
	c-2.3,3-2.4,7.2-0.1,10.2l3.9,5.3c0.3,0.4,0.5,1,0.5,1.5V-61.4z"/>
<path class="st0" d="M1008.9-77.5h-33.2c-1.4,0-2.5-1.1-2.5-2.5s1.1-2.5,2.5-2.5h33.2c1.4,0,2.5,1.1,2.5,2.5
	S1010.3-77.5,1008.9-77.5z"/>
<path class="st0" d="M1137.1-55.4H1087c-1.4,0-2.5-1.1-2.5-2.5v-19.4l-3.4-4.6c-3.6-4.8-3.5-11.5,0.2-16.3c2.9-3.7,7.6-5.6,12.2-5.1
	l31.5,3.9l14.4-36.6c1.1-2.9,3.5-5.2,6.4-6.3c2.9-1.1,6.2-0.9,9,0.5c5.1,2.6,7.4,8.8,5.3,14.1l-20.5,50v19.7
	C1139.6-56.5,1138.5-55.4,1137.1-55.4z M1089.5-60.4h45.1v-17.7c0-0.3,0.1-0.6,0.2-0.9l20.7-50.5c1.2-2.9-0.1-6.4-2.9-7.8
	c-1.6-0.8-3.3-0.9-5-0.3c-1.6,0.6-2.9,1.9-3.5,3.5L1129-95.7c-0.4,1.1-1.5,1.7-2.6,1.6l-33.5-4.1c-2.9-0.4-5.9,0.9-7.7,3.2
	c-2.3,3-2.4,7.2-0.1,10.2l3.9,5.3c0.3,0.4,0.5,1,0.5,1.5V-60.4z"/>
<path class="st0" d="M1128.9-65h-33.2c-1.4,0-2.5-1.1-2.5-2.5s1.1-2.5,2.5-2.5h33.2c1.4,0,2.5,1.1,2.5,2.5S1130.3-65,1128.9-65z"/>
<path class="st1" d="M-208.2-127.7c0-4.3,3.5-7.8,7.8-7.8c4.3,0,7.8,3.5,7.8,7.8"/>
<line class="st1" x1="-206.8" y1="-144" x2="-202.7" y2="-135.2"/>
<line class="st1" x1="-197.2" y1="-135.2" x2="-193.2" y2="-144"/>
<path class="st3" d="M-231-207.8c-0.6,0-1.3-0.2-1.8-0.7c-1-1-1-2.6,0-3.5l3.1-3.1c1-1,2.6-1,3.5,0c1,1,1,2.6,0,3.5l-3.1,3.1
	C-229.7-208.1-230.3-207.8-231-207.8z"/>
<path class="st3" d="M-170.6-207.8c-0.6,0-1.3-0.2-1.8-0.7l-3.1-3.1c-1-1-1-2.6,0-3.5c1-1,2.6-1,3.5,0l3.1,3.1c1,1,1,2.6,0,3.5
	C-169.3-208.1-170-207.8-170.6-207.8z"/>
<path class="st3" d="M84.3-274.4H-4.6c-1.4,0-2.5-1.1-2.5-2.5s1.1-2.5,2.5-2.5h88.9c1.4,0,2.5,1.1,2.5,2.5S85.7-274.4,84.3-274.4z"
	/>
<path class="st3" d="M40.6-208.2c-1.4,0-2.5-1.1-2.5-2.5v-18.2c0-1.4,1.1-2.5,2.5-2.5s2.5,1.1,2.5,2.5v18.2
	C43.1-209.3,42-208.2,40.6-208.2z"/>
<path class="st3" d="M70.1-214c-0.6,0-1.3-0.2-1.8-0.7l-12.8-12.8c-1-1-1-2.6,0-3.5c1-1,2.6-1,3.5,0l12.8,12.8c1,1,1,2.6,0,3.5
	C71.4-214.2,70.7-214,70.1-214z"/>
<path class="st3" d="M11.6-214c-0.6,0-1.3-0.2-1.8-0.7c-1-1-1-2.6,0-3.5l12.8-12.8c1-1,2.6-1,3.5,0c1,1,1,2.6,0,3.5l-12.8,12.8
	C12.9-214.2,12.2-214,11.6-214z"/>
<path class="st3" d="M39.6-236.2c-21.9,0-39.6-17.8-39.6-39.6c0-1.4,1.1-2.5,2.5-2.5s2.5,1.1,2.5,2.5c0,19.1,15.5,34.6,34.6,34.6
	s34.6-15.5,34.6-34.6c0-1.4,1.1-2.5,2.5-2.5s2.5,1.1,2.5,2.5C79.2-254,61.4-236.2,39.6-236.2z"/>
<path class="st3" d="M550.7-215.2c-0.6,0-1.3-0.2-1.8-0.7l-70.3-70.3c-1-1-1-2.6,0-3.5c1-1,2.6-1,3.5,0l70.3,70.3c1,1,1,2.6,0,3.5
	C552-215.4,551.4-215.2,550.7-215.2z"/>
<path class="st3" d="M-320.3-204.4c-24.1,0-43.8-19.6-43.8-43.8c0-18.2,11-34.2,27.9-40.8c1.3-0.5,2.7,0.1,3.2,1.4
	c0.5,1.3-0.1,2.7-1.4,3.2c-15,5.8-24.7,20-24.7,36.1c0,21.4,17.4,38.8,38.8,38.8s38.8-17.4,38.8-38.8c0-15.9-9.5-30-24.3-36
	c-1.3-0.5-1.9-2-1.4-3.3c0.5-1.3,2-1.9,3.3-1.4c16.7,6.7,27.4,22.6,27.4,40.6C-276.6-224-296.2-204.4-320.3-204.4z"/>
<path class="st3" d="M-320.3-238.1c-1.4,0-2.5-1.1-2.5-2.5v-53.8c0-1.4,1.1-2.5,2.5-2.5s2.5,1.1,2.5,2.5v53.8
	C-317.8-239.2-318.9-238.1-320.3-238.1z"/>
<path class="st3" d="M-157.6-212.7h-85.6c-1.4,0-2.5-1.1-2.5-2.5v-63.9c0-1.4,1.1-2.5,2.5-2.5h85.6c1.4,0,2.5,1.1,2.5,2.5v63.9
	C-155.1-213.8-156.2-212.7-157.6-212.7z M-240.6-217.7h80.6v-58.9h-80.6V-217.7z"/>
<g>
	
		<text transform="matrix(1 0 0 1 -204.7318 -234.6979)" class="st3" style="font-family:'BernardMT-Condensed'; font-size:32.8555px;">i</text>
</g>
<path class="st3" d="M-40-210.9h-80.6c-1.4,0-2.5-1.1-2.5-2.5v-65.7c0-1.4,1.1-2.5,2.5-2.5H-40c1.4,0,2.5,1.1,2.5,2.5v65.7
	C-37.5-212-38.6-210.9-40-210.9z M-118.1-215.9h75.6v-60.7h-75.6V-215.9z"/>
<path class="st3" d="M-109.6-253.9c-0.6,0-1.1-0.2-1.6-0.6c-1.1-0.9-1.2-2.5-0.3-3.5l9.5-11.4c0.9-1.1,2.5-1.2,3.5-0.3
	c1.1,0.9,1.2,2.5,0.3,3.5l-9.5,11.4C-108.2-254.2-108.9-253.9-109.6-253.9z"/>
<path class="st3" d="M-107.5-237.9c-0.5,0-1.1-0.2-1.6-0.5c-1.1-0.9-1.3-2.4-0.4-3.5l21.1-26.6c0.9-1.1,2.4-1.3,3.5-0.4
	c1.1,0.9,1.3,2.4,0.4,3.5l-21.1,26.6C-106-238.3-106.7-237.9-107.5-237.9z"/>
<path class="st3" d="M732.4-257.4c-0.6,0-1.1-0.2-1.6-0.6c-1.1-0.9-1.2-2.5-0.3-3.5l7.8-9.3c0.9-1.1,2.5-1.2,3.5-0.3
	s1.2,2.5,0.3,3.5l-7.8,9.3C733.8-257.7,733.1-257.4,732.4-257.4z"/>
<path class="st3" d="M736.3-241.6c-0.5,0-1.1-0.2-1.6-0.5c-1.1-0.9-1.3-2.4-0.4-3.5l17.3-21.8c0.9-1.1,2.4-1.3,3.5-0.4
	c1.1,0.9,1.3,2.4,0.4,3.5l-17.3,21.8C737.8-241.9,737-241.6,736.3-241.6z"/>
<path class="st3" d="M59.2,90H47.8c-1.4,0-2.5-1.1-2.5-2.5V12.5c0-1.4,1.1-2.5,2.5-2.5h11.4c1.4,0,2.5,1.1,2.5,2.5v74.9
	C61.7,88.8,60.6,90,59.2,90z M50.3,85h6.4V15h-6.4V85z"/>
<path class="st3" d="M20.9,19.5c-1.6,0-2.9-1.3-2.9-2.9s1.3-2.9,2.9-2.9s2.9,1.3,2.9,2.9S22.5,19.5,20.9,19.5z"/>
<path class="st3" d="M31.5,36.6c-3.9,0-7.2-3.2-7.2-7.2c0-3.9,3.2-7.2,7.2-7.2s7.2,3.2,7.2,7.2C38.6,33.4,35.4,36.6,31.5,36.6z
	 M31.5,27.3c-1.2,0-2.2,1-2.2,2.2c0,1.2,1,2.2,2.2,2.2s2.2-1,2.2-2.2C33.6,28.2,32.7,27.3,31.5,27.3z"/>
<path class="st3" d="M14.4,49c-3.2,0-5.8-2.6-5.8-5.8s2.6-5.8,5.8-5.8s5.8,2.6,5.8,5.8S17.6,49,14.4,49z M14.4,42.5
	c-0.4,0-0.8,0.4-0.8,0.8s0.4,0.8,0.8,0.8c0.4,0,0.8-0.4,0.8-0.8S14.8,42.5,14.4,42.5z"/>
<path class="st3" d="M31.5,62.6c-2.3,0-4.1-1.9-4.1-4.1s1.9-4.1,4.1-4.1s4.1,1.9,4.1,4.1S33.8,62.6,31.5,62.6z M31.5,57.6
	c-0.5,0-0.9,0.4-0.9,0.9c0,0.5,0.4,0.9,0.9,0.9c0.5,0,0.9-0.4,0.9-0.9C32.3,58,31.9,57.6,31.5,57.6z"/>
<path class="st3" d="M18.6,85c-4.6,0-8.4-3.8-8.4-8.4s3.8-8.4,8.4-8.4s8.4,3.8,8.4,8.4S23.3,85,18.6,85z M18.6,73.1
	c-1.9,0-3.4,1.5-3.4,3.4s1.5,3.4,3.4,3.4s3.4-1.5,3.4-3.4S20.5,73.1,18.6,73.1z"/>
<path class="st3" d="M73.9,47.1c1.8-0.3,3.6,0.3,5.2,1.2c2.9,1.6,5.8,2.5,9,0.8c1.1-0.6,2.4-0.6,3.1,0.6c1,1.7-0.7,2.5-1.7,3
	c-3.7,1.9-7.4,1.7-11-0.4c-2.4-1.4-5-1.9-7.6-0.7c-1.5,0.6-3.2,1.1-3.9-0.7c-0.7-1.9,1.2-2.4,2.5-3C70.9,47.3,72.3,47,73.9,47.1z"/>
<path class="st3" d="M85.7,32.1c-3,0.1-4.8-0.1-6.5-1c-3-1.7-6.1-2.7-9.4-0.7c-1.3,0.8-2.3,0.2-2.9-0.8c-0.8-1.4,0.4-2.1,1.4-2.7
	c3.6-2,7.3-2,10.9-0.1c2.6,1.4,5.3,2,8.1,0.9c1.5-0.6,3.1-1.2,3.8,0.6c0.9,2.3-1.4,2.7-2.8,3.2C87.2,32,85.8,32.1,85.7,32.1z"/>
<path class="st3" d="M74.2,68.7c2.1,0.1,4,0.6,5.7,1.6c2.4,1.4,5,1.7,7.6,0.5c1.5-0.7,3-1.2,3.7,0.7c0.7,2-1.2,2.6-2.5,3
	c-3.4,1.2-6.8,1.2-10.1-0.5c-2.6-1.4-5.3-1.9-8.1-0.7c-1.6,0.7-3.1,1-3.7-0.8c-0.6-1.9,1.2-2.5,2.6-3C71,69.2,72.6,69,74.2,68.7z"/>
<path class="st3" d="M279.7-203c-26.5,0-48-21.5-48-48s21.5-48,48-48c1.4,0,2.5,1.1,2.5,2.5v22.7c0,1.4-1.1,2.5-2.5,2.5
	s-2.5-1.1-2.5-2.5v-20.2c-22.5,1.3-40.5,20.1-40.5,42.9c0,23.7,19.3,43,43,43s43-19.3,43-43c0-17.5-10.5-33.2-26.7-39.8
	c-1.3-0.5-1.9-2-1.4-3.3s2-1.9,3.3-1.4c18.1,7.4,29.8,24.9,29.8,44.4C327.7-224.6,306.1-203,279.7-203z"/>
<path class="st3" d="M296.9-236.8h-34.5c-1.4,0-2.5-1.1-2.5-2.5v-19.1c0-9.8,8-17.9,17.9-17.9h3.8c9.8,0,17.9,8,17.9,17.9v19.1
	C299.4-237.9,298.3-236.8,296.9-236.8z M264.9-241.8h29.5v-16.6c0-7.1-5.8-12.9-12.9-12.9h-3.8c-7.1,0-12.9,5.8-12.9,12.9V-241.8z"
	/>
<path class="st3" d="M270.6-218.5c-1.4,0-2.5-1.1-2.5-2.5v-11.2c0-1.4,1.1-2.5,2.5-2.5s2.5,1.1,2.5,2.5v11.2
	C273.1-219.6,272-218.5,270.6-218.5z"/>
<path class="st3" d="M289.5-218.5c-1.4,0-2.5-1.1-2.5-2.5v-11.2c0-1.4,1.1-2.5,2.5-2.5s2.5,1.1,2.5,2.5v11.2
	C292-219.6,290.8-218.5,289.5-218.5z"/>
<path class="st3" d="M399.8-281.6c-1.4,0-2.5-1.1-2.5-2.5v-11.2c0-1.4,1.1-2.5,2.5-2.5s2.5,1.1,2.5,2.5v11.2
	C402.3-282.7,401.2-281.6,399.8-281.6z"/>
<path class="st3" d="M399.8-202.6c-1.4,0-2.5-1.1-2.5-2.5v-11.2c0-1.4,1.1-2.5,2.5-2.5s2.5,1.1,2.5,2.5v11.2
	C402.3-203.7,401.2-202.6,399.8-202.6z"/>
<path class="st3" d="M275.6-244.6c-0.6,0-1.3-0.2-1.8-0.7c-1-1-1-2.6,0-3.5l5.9-5.9h-6.2c-1,0-1.9-0.6-2.3-1.5
	c-0.4-0.9-0.2-2,0.5-2.7l8.3-8.8c0.9-1,2.5-1,3.5-0.1c1,0.9,1,2.5,0.1,3.5l-4.3,4.6h6.4c1,0,1.9,0.6,2.3,1.5c0.4,0.9,0.2,2-0.5,2.7
	l-10.1,10.1C276.9-244.8,276.3-244.6,275.6-244.6z"/>
<path class="st3" d="M399.8-220.7c-16.1,0-29.2-13.1-29.2-29.2c0-16.1,13.1-29.2,29.2-29.2S429-266,429-249.9
	C429-233.8,415.9-220.7,399.8-220.7z M399.8-274.1c-13.3,0-24.2,10.9-24.2,24.2c0,13.3,10.9,24.2,24.2,24.2s24.2-10.9,24.2-24.2
	C424-263.2,413.1-274.1,399.8-274.1z"/>
<path class="st3" d="M444.9-247.4h-11.2c-1.4,0-2.5-1.1-2.5-2.5s1.1-2.5,2.5-2.5h11.2c1.4,0,2.5,1.1,2.5,2.5
	S446.3-247.4,444.9-247.4z"/>
<path class="st3" d="M365.9-247.4h-11.2c-1.4,0-2.5-1.1-2.5-2.5s1.1-2.5,2.5-2.5h11.2c1.4,0,2.5,1.1,2.5,2.5
	S367.2-247.4,365.9-247.4z"/>
<path class="st3" d="M431.7-215.8c-0.6,0-1.3-0.2-1.8-0.7l-7.9-7.9c-1-1-1-2.6,0-3.5c1-1,2.6-1,3.5,0l7.9,7.9c1,1,1,2.6,0,3.5
	C432.9-216,432.3-215.8,431.7-215.8z"/>
<path class="st3" d="M375.8-271.7c-0.6,0-1.3-0.2-1.8-0.7l-7.9-7.9c-1-1-1-2.6,0-3.5c1-1,2.6-1,3.5,0l7.9,7.9c1,1,1,2.6,0,3.5
	C377.1-271.9,376.4-271.7,375.8-271.7z"/>
<path class="st3" d="M424.2-272.1c-0.6,0-1.3-0.2-1.8-0.7c-1-1-1-2.6,0-3.5l7.9-7.9c1-1,2.6-1,3.5,0c1,1,1,2.6,0,3.5l-7.9,7.9
	C425.5-272.3,424.8-272.1,424.2-272.1z"/>
<path class="st3" d="M367.8-215.5c-0.6,0-1.3-0.2-1.8-0.7c-1-1-1-2.6,0-3.5l7.9-7.9c1-1,2.6-1,3.5,0c1,1,1,2.6,0,3.5l-7.9,7.9
	C369.1-215.8,368.4-215.5,367.8-215.5z"/>
<path class="st3" d="M532.4-246.8c-1.4,0-2.5-1.1-2.5-2.5V-287L513-270.1c-1,1-2.6,1-3.5,0c-1-1-1-2.6,0-3.5l21.1-21.1
	c0.7-0.7,1.8-0.9,2.7-0.5c0.9,0.4,1.5,1.3,1.5,2.3v43.7C534.9-247.9,533.8-246.8,532.4-246.8z"/>
<path class="st3" d="M532.4-204.3c-0.7,0-1.3-0.3-1.8-0.7l-30.5-30.5h-23.2c-1.4,0-2.5-1.1-2.5-2.5v-25.8c0-1.4,1.1-2.5,2.5-2.5
	h26.3c1.4,0,2.5,1.1,2.5,2.5s-1.1,2.5-2.5,2.5h-23.8v20.8h21.7c0.7,0,1.3,0.3,1.8,0.7l27,27v-22c0-1.4,1.1-2.5,2.5-2.5
	s2.5,1.1,2.5,2.5v28.1c0,1-0.6,1.9-1.5,2.3C533.1-204.4,532.7-204.3,532.4-204.3z"/>
<path class="st3" d="M563.9-246.8h-11.2c-1.4,0-2.5-1.1-2.5-2.5s1.1-2.5,2.5-2.5h11.2c1.4,0,2.5,1.1,2.5,2.5
	S565.3-246.8,563.9-246.8z"/>
<path class="st3" d="M543.2-271.5c-0.6,0-1.3-0.2-1.8-0.7c-1-1-1-2.6,0-3.5l7.9-7.9c1-1,2.6-1,3.5,0c1,1,1,2.6,0,3.5l-7.9,7.9
	C544.5-271.7,543.9-271.5,543.2-271.5z"/>
<path class="st3" d="M607-205.9c-5.2,0-9.4-4.2-9.4-9.4s4.2-9.4,9.4-9.4s9.4,4.2,9.4,9.4S612.2-205.9,607-205.9z M607-219.7
	c-2.4,0-4.4,2-4.4,4.4s2,4.4,4.4,4.4s4.4-2,4.4-4.4S609.4-219.7,607-219.7z"/>
<path class="st3" d="M629.2-215.8c-1.3,0-2.3-0.9-2.5-2.2c-1.1-9.5-8.7-17.1-18.3-18c-1.4-0.1-2.4-1.4-2.3-2.7
	c0.1-1.4,1.4-2.4,2.7-2.3c11.9,1.1,21.4,10.5,22.8,22.4c0.2,1.4-0.8,2.6-2.2,2.8C629.4-215.8,629.3-215.8,629.2-215.8z"/>
<path class="st3" d="M647.6-216.3c-1.3,0-2.5-1.1-2.5-2.4c-0.5-19.9-16.6-35.8-36.5-36.2c-1.4,0-2.5-1.2-2.5-2.5
	c0-1.4,1.2-2.5,2.5-2.5c22.6,0.4,40.8,18.4,41.4,41C650.1-217.5,649-216.3,647.6-216.3C647.6-216.3,647.6-216.3,647.6-216.3z"/>
<path class="st3" d="M667.1-215.8c-1.3,0-2.4-1-2.5-2.3c-1.9-30-26.1-54.1-56.1-56.1c-1.4-0.1-2.4-1.3-2.3-2.7
	c0.1-1.4,1.3-2.4,2.7-2.3c32.5,2.1,58.6,28.3,60.7,60.8c0.1,1.4-1,2.6-2.3,2.7C667.2-215.8,667.1-215.8,667.1-215.8z"/>
<path class="st3" d="M760.5-203.4c-0.4,0-0.9-0.1-1.2-0.3L733-218.9c-8.5-4.9-13.7-14-13.7-23.8V-273c0-0.9,0.5-1.7,1.2-2.2
	l38.7-22.4c0.8-0.4,1.7-0.4,2.5,0l38.7,22.4c0.8,0.4,1.2,1.3,1.2,2.2v30.3c0,9.8-5.3,18.9-13.7,23.8l-26.3,15.2
	C761.4-203.5,761-203.4,760.5-203.4z M724.3-271.5v28.9c0,8,4.3,15.4,11.2,19.4l25,14.4l25-14.4c6.9-4,11.2-11.4,11.2-19.4v-28.9
	l-36.2-20.9L724.3-271.5z"/>
<path class="st3" d="M760.5-286.5l30.3,17.5v25c0,6.2-3.3,11.9-8.7,15l-21.6,12.5V-286.5z"/>
<path class="st3" d="M910-207.7h-50.1c-1.4,0-2.5-1.1-2.5-2.5v-19.7l-20.5-50c-2.2-5.3,0.1-11.5,5.3-14.2c2.8-1.4,6.1-1.6,9-0.5
	c2.9,1.1,5.3,3.4,6.4,6.3l14.4,36.6l31.5-3.9c4.7-0.6,9.3,1.4,12.2,5.1c3.7,4.8,3.8,11.5,0.2,16.3l-3.4,4.6v19.4
	C912.5-208.9,911.4-207.7,910-207.7z M862.4-212.7h45.1v-17.7c0-0.5,0.2-1.1,0.5-1.5l3.9-5.3c2.3-3,2.2-7.2-0.1-10.2
	c-1.8-2.3-4.8-3.5-7.7-3.2l-33.5,4.1c-1.1,0.1-2.2-0.5-2.6-1.6l-15.1-38.4c-0.6-1.6-1.9-2.9-3.5-3.5c-1.6-0.6-3.4-0.5-4.9,0.3
	c-2.8,1.4-4.1,4.9-2.9,7.8l20.7,50.5c0.1,0.3,0.2,0.6,0.2,0.9V-212.7z"/>
<path class="st3" d="M901.3-228.9h-33.2c-1.4,0-2.5-1.1-2.5-2.5s1.1-2.5,2.5-2.5h33.2c1.4,0,2.5,1.1,2.5,2.5
	S902.7-228.9,901.3-228.9z"/>
<path class="st3" d="M1017.1-207.7H967c-1.4,0-2.5-1.1-2.5-2.5v-19.4l-3.4-4.6c-3.6-4.8-3.5-11.5,0.2-16.3c2.9-3.7,7.6-5.6,12.2-5.1
	l31.5,3.9l14.4-36.6c1.1-2.9,3.5-5.2,6.4-6.3c2.9-1.1,6.2-0.9,9,0.5c5.1,2.6,7.4,8.8,5.3,14.2l-20.5,50v19.7
	C1019.6-208.9,1018.5-207.7,1017.1-207.7z M969.5-212.7h45.1v-17.7c0-0.3,0.1-0.6,0.2-0.9l20.7-50.5c1.2-2.9-0.1-6.4-2.9-7.8
	c-1.6-0.8-3.3-0.9-5-0.3c-1.6,0.6-2.9,1.9-3.5,3.5L1009-248c-0.4,1.1-1.5,1.7-2.6,1.6l-33.5-4.1c-2.9-0.4-5.9,0.9-7.7,3.2
	c-2.3,3-2.4,7.2-0.1,10.2l3.9,5.3c0.3,0.4,0.5,1,0.5,1.5V-212.7z"/>
<path class="st3" d="M1008.9-228.9h-33.2c-1.4,0-2.5-1.1-2.5-2.5s1.1-2.5,2.5-2.5h33.2c1.4,0,2.5,1.1,2.5,2.5
	S1010.3-228.9,1008.9-228.9z"/>
<path class="st3" d="M1137.1-206.8H1087c-1.4,0-2.5-1.1-2.5-2.5v-19.4l-3.4-4.6c-3.6-4.8-3.5-11.5,0.2-16.3
	c2.9-3.7,7.6-5.6,12.2-5.1l31.5,3.9l14.4-36.6c1.1-2.9,3.5-5.2,6.4-6.3c2.9-1.1,6.2-0.9,9,0.5c5.1,2.6,7.4,8.8,5.3,14.1l-20.5,50
	v19.7C1139.6-207.9,1138.5-206.8,1137.1-206.8z M1089.5-211.8h45.1v-17.7c0-0.3,0.1-0.6,0.2-0.9l20.7-50.5c1.2-2.9-0.1-6.4-2.9-7.8
	c-1.6-0.8-3.3-0.9-5-0.3c-1.6,0.6-2.9,1.9-3.5,3.5l-15.1,38.4c-0.4,1.1-1.5,1.7-2.6,1.6l-33.5-4.1c-2.9-0.4-5.9,0.9-7.7,3.2
	c-2.3,3-2.4,7.2-0.1,10.2l3.9,5.3c0.3,0.4,0.5,1,0.5,1.5V-211.8z"/>
<path class="st3" d="M1128.9-216.4h-33.2c-1.4,0-2.5-1.1-2.5-2.5s1.1-2.5,2.5-2.5h33.2c1.4,0,2.5,1.1,2.5,2.5
	S1130.3-216.4,1128.9-216.4z"/>
<path class="st3" d="M-192.5-276.6c-1.4,0-2.5-1.1-2.5-2.5c0-2.9-2.4-5.3-5.3-5.3s-5.3,2.4-5.3,5.3c0,1.4-1.1,2.5-2.5,2.5
	s-2.5-1.1-2.5-2.5c0-5.7,4.6-10.3,10.3-10.3s10.3,4.6,10.3,10.3C-190-277.7-191.1-276.6-192.5-276.6z"/>
<path class="st3" d="M-202.7-284.1c-0.9,0-1.9-0.5-2.3-1.5l-4-8.8c-0.6-1.3,0-2.7,1.2-3.3c1.3-0.6,2.7,0,3.3,1.2l4,8.8
	c0.6,1.3,0,2.7-1.2,3.3C-202-284.1-202.4-284.1-202.7-284.1z"/>
<path class="st3" d="M-197.2-284.1c-0.3,0-0.7-0.1-1-0.2c-1.3-0.6-1.8-2.1-1.2-3.3l4-8.8c0.6-1.3,2.1-1.8,3.3-1.2
	c1.3,0.6,1.8,2.1,1.2,3.3l-4,8.8C-195.3-284.6-196.3-284.1-197.2-284.1z"/>
<path class="st3" d="M-465.2-210.1c-1.3,0-2.7-0.6-3.6-1.7c-1.5-2-1.2-4.8,0.8-6.3l41.9-32.4l-41.9-32.4c-2-1.5-2.3-4.3-0.8-6.3
	c1.5-2,4.3-2.3,6.3-0.8l46.5,36c1.1,0.9,1.7,2.2,1.7,3.6s-0.6,2.7-1.7,3.6l-46.5,36C-463.3-210.5-464.2-210.1-465.2-210.1z"/>
<path class="st3" d="M-507.8-210.1c-1,0-1.9-0.3-2.7-0.9l-46.5-36c-1.1-0.9-1.7-2.2-1.7-3.6s0.6-2.7,1.7-3.6l46.5-36
	c2-1.5,4.8-1.2,6.3,0.8c1.5,2,1.2,4.8-0.8,6.3l-41.9,32.4l41.9,32.4c2,1.5,2.3,4.3,0.8,6.3C-505.2-210.7-506.5-210.1-507.8-210.1z"
	/>
<g>
	<path class="st3" d="M-622.2-284.2v30.2h27.1c2.4,0,4.4,2,4.4,4.4v0c0,2.4-2,4.4-4.4,4.4h-27.1v30.5c0,2.4-2,4.4-4.4,4.4h-0.1
		c-2.4,0-4.4-2-4.4-4.4v-30.5h-27.1c-2.4,0-4.4-2-4.4-4.4v0c0-2.4,2-4.4,4.4-4.4h27.1v-30.2c0-2.4,2-4.4,4.4-4.4h0.1
		C-624.2-288.6-622.2-286.6-622.2-284.2z"/>
</g>
<g>
	<path class="st3" d="M-710.6-250.1L-710.6-250.1c0,2.6-2.1,4.8-4.8,4.8h-48.9c-2.6,0-4.8-2.1-4.8-4.8v0c0-2.6,2.1-4.8,4.8-4.8h48.9
		C-712.8-254.9-710.6-252.8-710.6-250.1z"/>
</g>
<path class="st0" d="M-465.2-55.5c-1.3,0-2.7-0.6-3.6-1.7c-1.5-2-1.2-4.8,0.8-6.3L-426-96l-41.9-32.4c-2-1.5-2.3-4.3-0.8-6.3
	c1.5-2,4.3-2.3,6.3-0.8l46.5,36c1.1,0.9,1.7,2.2,1.7,3.6s-0.6,2.7-1.7,3.6l-46.5,36C-463.3-55.8-464.2-55.5-465.2-55.5z"/>
<path class="st0" d="M-507.8-55.5c-1,0-1.9-0.3-2.7-0.9l-46.5-36c-1.1-0.9-1.7-2.2-1.7-3.6s0.6-2.7,1.7-3.6l46.5-36
	c2-1.5,4.8-1.2,6.3,0.8c1.5,2,1.2,4.8-0.8,6.3L-547-96l41.9,32.4c2,1.5,2.3,4.3,0.8,6.3C-505.2-56.1-506.5-55.5-507.8-55.5z"/>
<g>
	<path class="st0" d="M-622.2-129.6v30.2h27.1c2.4,0,4.4,2,4.4,4.4v0c0,2.4-2,4.4-4.4,4.4h-27.1v30.5c0,2.4-2,4.4-4.4,4.4h-0.1
		c-2.4,0-4.4-2-4.4-4.4v-30.5h-27.1c-2.4,0-4.4-2-4.4-4.4v0c0-2.4,2-4.4,4.4-4.4h27.1v-30.2c0-2.4,2-4.4,4.4-4.4h0.1
		C-624.2-134-622.2-132-622.2-129.6z"/>
</g>
<g>
	<path class="st0" d="M-710.6-95.5L-710.6-95.5c0,2.6-2.1,4.8-4.8,4.8h-48.9c-2.6,0-4.8-2.1-4.8-4.8v0c0-2.6,2.1-4.8,4.8-4.8h48.9
		C-712.8-100.3-710.6-98.2-710.6-95.5z"/>
</g>
</svg>
