<?xml version="1.0" encoding="utf-8"?>
<!-- Generator: Adobe Illustrator 28.3.0, SVG Export Plug-In . SVG Version: 6.00 Build 0)  -->
<svg version="1.1" id="Layer_1" xmlns="http://www.w3.org/2000/svg" xmlns:xlink="http://www.w3.org/1999/xlink" x="0px" y="0px"
	 viewBox="0 0 100 100" style="enable-background:new 0 0 100 100;" xml:space="preserve">
<style type="text/css">
	.st0{fill:#FFFFFF;}
	.st1{fill:none;stroke:#FFFFFF;stroke-width:5;stroke-linecap:round;stroke-linejoin:round;stroke-miterlimit:10;}
	.st2{fill:none;stroke:#FFFFFF;stroke-width:4;stroke-linecap:round;stroke-linejoin:round;}
	.st3{fill:#211F1F;}
</style>
<path class="st0" d="M548.3-88.9c-0.6,0-1.3-0.2-1.8-0.7c-1-1-1-2.6,0-3.5l3.1-3.1c1-1,2.6-1,3.5,0c1,1,1,2.6,0,3.5l-3.1,3.1
	C549.6-89.2,548.9-88.9,548.3-88.9z"/>
<path class="st0" d="M608.6-88.9c-0.6,0-1.3-0.2-1.8-0.7l-3.1-3.1c-1-1-1-2.6,0-3.5c1-1,2.6-1,3.5,0l3.1,3.1c1,1,1,2.6,0,3.5
	C609.9-89.2,609.2-88.9,608.6-88.9z"/>
<line class="st1" x1="774.6" y1="-158" x2="863.5" y2="-158"/>
<path class="st0" d="M819.8-89.3c-1.4,0-2.5-1.1-2.5-2.5V-110c0-1.4,1.1-2.5,2.5-2.5s2.5,1.1,2.5,2.5v18.2
	C822.3-90.4,821.2-89.3,819.8-89.3z"/>
<path class="st0" d="M849.3-95.1c-0.6,0-1.3-0.2-1.8-0.7l-12.8-12.8c-1-1-1-2.6,0-3.5c1-1,2.6-1,3.5,0l12.8,12.8c1,1,1,2.6,0,3.5
	C850.6-95.3,849.9-95.1,849.3-95.1z"/>
<path class="st0" d="M790.8-95.1c-0.6,0-1.3-0.2-1.8-0.7c-1-1-1-2.6,0-3.5l12.8-12.8c1-1,2.6-1,3.5,0c1,1,1,2.6,0,3.5l-12.8,12.8
	C792.1-95.3,791.5-95.1,790.8-95.1z"/>
<path class="st0" d="M818.8-117.3c-21.9,0-39.6-17.8-39.6-39.6c0-1.4,1.1-2.5,2.5-2.5s2.5,1.1,2.5,2.5c0,19.1,15.5,34.6,34.6,34.6
	s34.6-15.5,34.6-34.6c0-1.4,1.1-2.5,2.5-2.5s2.5,1.1,2.5,2.5C858.5-135.1,840.7-117.3,818.8-117.3z"/>
<path class="st0" d="M1329.9-96.3c-0.6,0-1.3-0.2-1.8-0.7l-70.3-70.3c-1-1-1-2.6,0-3.5c1-1,2.6-1,3.5,0l70.3,70.3c1,1,1,2.6,0,3.5
	C1331.2-96.5,1330.6-96.3,1329.9-96.3z"/>
<path class="st0" d="M458.9-85.5c-24.1,0-43.8-19.6-43.8-43.8c0-18.2,11-34.2,27.9-40.8c1.3-0.5,2.7,0.1,3.2,1.4
	c0.5,1.3-0.1,2.7-1.4,3.2c-15,5.8-24.7,20-24.7,36.1c0,21.4,17.4,38.8,38.8,38.8s38.8-17.4,38.8-38.8c0-15.9-9.5-30-24.3-36
	c-1.3-0.5-1.9-2-1.4-3.3c0.5-1.3,2-1.9,3.3-1.4c16.7,6.7,27.4,22.6,27.4,40.6C502.7-105.1,483-85.5,458.9-85.5z"/>
<path class="st0" d="M458.9-119.2c-1.4,0-2.5-1.1-2.5-2.5v-53.8c0-1.4,1.1-2.5,2.5-2.5s2.5,1.1,2.5,2.5v53.8
	C461.4-120.3,460.3-119.2,458.9-119.2z"/>
<path class="st0" d="M621.7-93.8h-85.6c-1.4,0-2.5-1.1-2.5-2.5v-63.9c0-1.4,1.1-2.5,2.5-2.5h85.6c1.4,0,2.5,1.1,2.5,2.5v63.9
	C624.2-94.9,623.1-93.8,621.7-93.8z M538.6-98.8h80.6v-58.9h-80.6V-98.8z"/>
<text transform="matrix(1 0 0 1 574.494 -115.8148)" class="st0" style="font-family:'BernardMT-Condensed'; font-size:32.8555px;">i</text>
<path class="st0" d="M739.2-92h-80.6c-1.4,0-2.5-1.1-2.5-2.5v-65.7c0-1.4,1.1-2.5,2.5-2.5h80.6c1.4,0,2.5,1.1,2.5,2.5v65.7
	C741.7-93.1,740.6-92,739.2-92z M661.1-97h75.6v-60.7h-75.6V-97z"/>
<line class="st1" x1="679.1" y1="-148.8" x2="669.6" y2="-137.5"/>
<path class="st0" d="M671.8-119c-0.5,0-1.1-0.2-1.6-0.5c-1.1-0.9-1.3-2.4-0.4-3.5l21.1-26.6c0.9-1.1,2.4-1.3,3.5-0.4
	c1.1,0.9,1.3,2.4,0.4,3.5L673.7-120C673.2-119.4,672.5-119,671.8-119z"/>
<line class="st1" x1="1519.4" y1="-150.3" x2="1511.6" y2="-141"/>
<path class="st0" d="M1515.5-122.7c-0.5,0-1.1-0.2-1.6-0.5c-1.1-0.9-1.3-2.4-0.4-3.5l17.3-21.8c0.9-1.1,2.4-1.3,3.5-0.4
	c1.1,0.9,1.3,2.4,0.4,3.5l-17.3,21.8C1517-123.1,1516.2-122.7,1515.5-122.7z"/>
<path class="st0" d="M945.4-91.8H934c-1.4,0-2.5-1.1-2.5-2.5v-74.9c0-1.4,1.1-2.5,2.5-2.5h11.4c1.4,0,2.5,1.1,2.5,2.5v74.9
	C947.9-92.9,946.8-91.8,945.4-91.8z M936.5-96.8h6.4v-69.9h-6.4V-96.8z"/>
<circle class="st1" cx="907.1" cy="-165.2" r="0.4"/>
<circle class="st1" cx="917.7" cy="-152.3" r="4.7"/>
<circle class="st1" cx="900.6" cy="-138.5" r="3.3"/>
<path class="st0" d="M917.7-119.1c-2.3,0-4.1-1.9-4.1-4.1s1.9-4.1,4.1-4.1s4.1,1.9,4.1,4.1S920-119.1,917.7-119.1z M917.7-124.1
	c-0.5,0-0.9,0.4-0.9,0.9s0.4,0.9,0.9,0.9c0.5,0,0.9-0.4,0.9-0.9S918.1-124.1,917.7-124.1z"/>
<path class="st0" d="M904.8-96.7c-4.6,0-8.4-3.8-8.4-8.4s3.8-8.4,8.4-8.4s8.4,3.8,8.4,8.4S909.5-96.7,904.8-96.7z M904.8-108.6
	c-1.9,0-3.4,1.5-3.4,3.4s1.5,3.4,3.4,3.4s3.4-1.5,3.4-3.4S906.7-108.6,904.8-108.6z"/>
<path class="st0" d="M960.1-134.6c1.8-0.3,3.6,0.3,5.2,1.2c2.9,1.6,5.8,2.5,9,0.8c1.1-0.6,2.4-0.6,3.1,0.6c1,1.7-0.7,2.5-1.7,3
	c-3.7,1.9-7.4,1.7-11-0.4c-2.4-1.4-5-1.9-7.6-0.7c-1.5,0.6-3.2,1.1-3.9-0.7c-0.7-1.9,1.2-2.4,2.5-3
	C957.1-134.4,958.5-134.7,960.1-134.6z"/>
<path class="st0" d="M971.9-149.6c-3,0.1-4.8-0.1-6.5-1c-3-1.7-6.1-2.7-9.4-0.7c-1.3,0.8-2.3,0.2-2.9-0.8c-0.8-1.4,0.4-2.1,1.4-2.7
	c3.6-2,7.3-2,10.9-0.1c2.6,1.4,5.3,2,8.1,0.9c1.5-0.6,3.1-1.2,3.8,0.6c0.9,2.3-1.4,2.7-2.8,3.2C973.4-149.7,972-149.6,971.9-149.6z"
	/>
<path class="st0" d="M960.5-113c2.1,0.1,4,0.6,5.7,1.6c2.4,1.4,5,1.7,7.6,0.5c1.5-0.7,3-1.2,3.7,0.7c0.7,2-1.2,2.6-2.5,3
	c-3.4,1.2-6.8,1.2-10.1-0.5c-2.6-1.4-5.3-1.9-8.1-0.7c-1.6,0.7-3.1,1-3.7-0.8c-0.6-1.9,1.2-2.5,2.6-3
	C957.2-112.6,958.8-112.7,960.5-113z"/>
<path class="st0" d="M1058.9-84.1c-26.5,0-48-21.5-48-48s21.5-48,48-48c1.4,0,2.5,1.1,2.5,2.5v22.7c0,1.4-1.1,2.5-2.5,2.5
	s-2.5-1.1-2.5-2.5v-20.2c-22.5,1.3-40.5,20.1-40.5,42.9c0,23.7,19.3,43,43,43s43-19.3,43-43c0-17.5-10.5-33.2-26.7-39.8
	c-1.3-0.5-1.9-2-1.4-3.3c0.5-1.3,2-1.9,3.3-1.4c18.1,7.4,29.8,24.9,29.8,44.4C1106.9-105.7,1085.4-84.1,1058.9-84.1z"/>
<path class="st0" d="M1076.1-117.9h-34.5c-1.4,0-2.5-1.1-2.5-2.5v-19.1c0-9.8,8-17.9,17.9-17.9h3.8c9.8,0,17.9,8,17.9,17.9v19.1
	C1078.6-119,1077.5-117.9,1076.1-117.9z M1044.2-122.9h29.5v-16.6c0-7.1-5.8-12.9-12.9-12.9h-3.8c-7.1,0-12.9,5.8-12.9,12.9V-122.9z
	"/>
<path class="st0" d="M1049.9-99.6c-1.4,0-2.5-1.1-2.5-2.5v-11.2c0-1.4,1.1-2.5,2.5-2.5s2.5,1.1,2.5,2.5v11.2
	C1052.4-100.8,1051.2-99.6,1049.9-99.6z"/>
<path class="st0" d="M1068.7-99.6c-1.4,0-2.5-1.1-2.5-2.5v-11.2c0-1.4,1.1-2.5,2.5-2.5s2.5,1.1,2.5,2.5v11.2
	C1071.2-100.8,1070.1-99.6,1068.7-99.6z"/>
<line class="st1" x1="1179" y1="-176.4" x2="1179" y2="-165.2"/>
<path class="st0" d="M1179-83.7c-1.4,0-2.5-1.1-2.5-2.5v-11.2c0-1.4,1.1-2.5,2.5-2.5s2.5,1.1,2.5,2.5v11.2
	C1181.5-84.8,1180.4-83.7,1179-83.7z"/>
<path class="st0" d="M1054.9-125.7c-0.6,0-1.3-0.2-1.8-0.7c-1-1-1-2.6,0-3.5l5.9-5.9h-6.2c-1,0-1.9-0.6-2.3-1.5
	c-0.4-0.9-0.2-2,0.5-2.7l8.3-8.8c0.9-1,2.5-1,3.5-0.1c1,0.9,1,2.5,0.1,3.5l-4.3,4.6h6.4c1,0,1.9,0.6,2.3,1.5c0.4,0.9,0.2,2-0.5,2.7
	l-10.1,10.1C1056.1-125.9,1055.5-125.7,1054.9-125.7z"/>
<path class="st0" d="M1179-101.8c-16.1,0-29.2-13.1-29.2-29.2c0-16.1,13.1-29.2,29.2-29.2s29.2,13.1,29.2,29.2
	C1208.2-114.9,1195.1-101.8,1179-101.8z M1179-155.2c-13.3,0-24.2,10.9-24.2,24.2s10.9,24.2,24.2,24.2s24.2-10.9,24.2-24.2
	S1192.4-155.2,1179-155.2z"/>
<line class="st1" x1="1224.1" y1="-131" x2="1212.9" y2="-131"/>
<line class="st1" x1="1145.1" y1="-131" x2="1133.9" y2="-131"/>
<path class="st0" d="M1210.9-96.9c-0.6,0-1.3-0.2-1.8-0.7l-7.9-7.9c-1-1-1-2.6,0-3.5c1-1,2.6-1,3.5,0l7.9,7.9c1,1,1,2.6,0,3.5
	C1212.2-97.1,1211.5-96.9,1210.9-96.9z"/>
<line class="st1" x1="1155" y1="-155.3" x2="1147.1" y2="-163.2"/>
<line class="st1" x1="1211.3" y1="-163.6" x2="1203.4" y2="-155.7"/>
<path class="st0" d="M1147-96.6c-0.6,0-1.3-0.2-1.8-0.7c-1-1-1-2.6,0-3.5l7.9-7.9c1-1,2.6-1,3.5,0c1,1,1,2.6,0,3.5l-7.9,7.9
	C1148.3-96.9,1147.7-96.6,1147-96.6z"/>
<polyline class="st1" points="1311.6,-130.4 1311.6,-174.1 1290.5,-153 "/>
<path class="st0" d="M1311.6-85.4c-0.7,0-1.3-0.3-1.8-0.7l-30.5-30.5h-23.2c-1.4,0-2.5-1.1-2.5-2.5v-25.8c0-1.4,1.1-2.5,2.5-2.5
	h26.3c1.4,0,2.5,1.1,2.5,2.5s-1.1,2.5-2.5,2.5h-23.8v20.8h21.7c0.7,0,1.3,0.3,1.8,0.7l27,27v-22c0-1.4,1.1-2.5,2.5-2.5
	s2.5,1.1,2.5,2.5v28.1c0,1-0.6,1.9-1.5,2.3C1312.3-85.5,1312-85.4,1311.6-85.4z"/>
<line class="st1" x1="1343.1" y1="-130.4" x2="1332" y2="-130.4"/>
<line class="st1" x1="1330.3" y1="-163" x2="1322.5" y2="-155.1"/>
<g>
	<g>
		<path class="st2" d="M1434.7-160.2c0.1-2.4,1.1-4.8,3-6.6c4-4,10.4-4,14.3,0s4,10.4,0,14.3c-2.8,2.8-6.9,3.6-10.5,2.4"/>
		<g>
			<polygon class="st0" points="1440,-161.4 1434.3,-152.7 1429.6,-162 			"/>
		</g>
		<g>
			<polygon class="st0" points="1441.6,-150.1 1441.5,-150.1 1441.5,-150 1441.5,-150 1441.4,-150.1 1441.5,-150.1 			"/>
		</g>
	</g>
</g>
<g>
	<g>
		<path class="st3" d="M1444.3-298.9c-1.3,0-2.7-0.2-3.9-0.7c-1-0.4-1.6-1.5-1.2-2.5c0.4-1,1.5-1.6,2.5-1.2c3,1,6.2,0.3,8.4-1.9
			c3.2-3.2,3.2-8.3,0-11.5c-1.5-1.5-3.6-2.4-5.7-2.4c-2.2,0-4.2,0.8-5.7,2.4c-1.4,1.4-2.3,3.3-2.4,5.3c-0.1,1.1-1,2-2.1,1.9
			c-1.1-0.1-1.9-1-1.9-2.1c0.2-3,1.4-5.8,3.5-7.9c4.7-4.7,12.4-4.7,17.1,0c4.7,4.7,4.7,12.4,0,17.1
			C1450.6-300.1,1447.5-298.9,1444.3-298.9z"/>
		<g>
			<polygon class="st3" points="1439.5,-312.8 1433.9,-304.1 1429.2,-313.4 			"/>
		</g>
		<g>
			<polygon class="st3" points="1441.1,-301.5 1441,-301.4 1441.1,-301.4 1441,-301.4 1441,-301.5 1441.1,-301.5 			"/>
		</g>
	</g>
</g>
<circle class="st0" cx="1386.2" cy="-96.4" r="6.9"/>
<path class="st0" d="M1408.4-96.9c-1.3,0-2.3-0.9-2.5-2.2c-1.1-9.5-8.7-17.1-18.3-18c-1.4-0.1-2.4-1.4-2.3-2.7
	c0.1-1.4,1.4-2.4,2.7-2.3c11.9,1.1,21.4,10.5,22.8,22.4c0.2,1.4-0.8,2.6-2.2,2.8C1408.6-96.9,1408.5-96.9,1408.4-96.9z"/>
<path class="st0" d="M1426.8-97.4c-1.3,0-2.5-1.1-2.5-2.4c-0.5-19.9-16.6-35.8-36.5-36.2c-1.4,0-2.5-1.2-2.5-2.5
	c0-1.4,1.2-2.5,2.5-2.5c22.6,0.4,40.8,18.4,41.4,41C1429.4-98.6,1428.3-97.4,1426.8-97.4C1426.9-97.4,1426.8-97.4,1426.8-97.4z"/>
<path class="st0" d="M1446.3-96.9c-1.3,0-2.4-1-2.5-2.3c-1.9-30-26.1-54.1-56.1-56.1c-1.4-0.1-2.4-1.3-2.3-2.7
	c0.1-1.4,1.3-2.4,2.7-2.3c32.5,2.1,58.6,28.3,60.7,60.8c0.1,1.4-1,2.6-2.3,2.7C1446.4-96.9,1446.4-96.9,1446.3-96.9z"/>
<path class="st0" d="M1539.8-84.5c-0.4,0-0.9-0.1-1.2-0.3l-26.3-15.2c-8.5-4.9-13.7-14-13.7-23.8v-30.3c0-0.9,0.5-1.7,1.2-2.2
	l38.7-22.4c0.8-0.4,1.7-0.4,2.5,0l38.7,22.4c0.8,0.4,1.2,1.3,1.2,2.2v30.3c0,9.8-5.3,18.9-13.7,23.8L1541-84.8
	C1540.6-84.6,1540.2-84.5,1539.8-84.5z M1503.5-152.6v28.9c0,8,4.3,15.4,11.2,19.4l25,14.4l25-14.4c6.9-4,11.2-11.4,11.2-19.4v-28.9
	l-36.2-20.9L1503.5-152.6z"/>
<path class="st0" d="M1539.8-167.6l30.3,17.5v25c0,6.2-3.3,11.9-8.7,15l-21.6,12.5V-167.6z"/>
<path class="st0" d="M1689.2-88.9h-50.1c-1.4,0-2.5-1.1-2.5-2.5v-19.7l-20.5-50c-2.2-5.3,0.1-11.5,5.3-14.2c2.8-1.4,6.1-1.6,9-0.5
	c2.9,1.1,5.3,3.4,6.4,6.3l14.4,36.6l31.5-3.9c4.7-0.6,9.3,1.4,12.2,5.1c3.7,4.8,3.8,11.5,0.2,16.3l-3.4,4.6v19.4
	C1691.7-90,1690.6-88.9,1689.2-88.9z M1641.6-93.9h45.1v-17.7c0-0.5,0.2-1.1,0.5-1.5l3.9-5.3c2.3-3,2.2-7.2-0.1-10.2
	c-1.8-2.3-4.8-3.5-7.7-3.2l-33.5,4.1c-1.1,0.1-2.2-0.5-2.6-1.6l-15.1-38.4c-0.6-1.6-1.9-2.9-3.5-3.5c-1.6-0.6-3.4-0.5-4.9,0.3
	c-2.8,1.4-4.1,4.9-2.9,7.8l20.7,50.5c0.1,0.3,0.2,0.6,0.2,0.9V-93.9z"/>
<path class="st0" d="M1680.5-110h-33.2c-1.4,0-2.5-1.1-2.5-2.5s1.1-2.5,2.5-2.5h33.2c1.4,0,2.5,1.1,2.5,2.5S1681.9-110,1680.5-110z"
	/>
<path class="st0" d="M1796.3-88.9h-50.1c-1.4,0-2.5-1.1-2.5-2.5v-19.4l-3.4-4.6c-3.6-4.8-3.5-11.5,0.2-16.3
	c2.9-3.7,7.6-5.6,12.2-5.1l31.5,3.9l14.4-36.6c1.1-2.9,3.5-5.2,6.4-6.3c2.9-1.1,6.2-0.9,9,0.5c5.1,2.6,7.4,8.8,5.3,14.1l-20.5,50
	v19.7C1798.8-90,1797.7-88.9,1796.3-88.9z M1748.7-93.9h45.1v-17.7c0-0.3,0.1-0.6,0.2-0.9l20.7-50.5c1.2-2.9-0.1-6.4-2.9-7.8
	c-1.6-0.8-3.3-0.9-5-0.3c-1.6,0.6-2.9,1.9-3.5,3.5l-15.1,38.4c-0.4,1.1-1.5,1.7-2.6,1.6l-33.5-4.1c-2.9-0.4-5.9,0.9-7.7,3.2
	c-2.3,3-2.4,7.2-0.1,10.2l3.9,5.3c0.3,0.4,0.5,1,0.5,1.5V-93.9z"/>
<path class="st0" d="M1788.1-110h-33.2c-1.4,0-2.5-1.1-2.5-2.5s1.1-2.5,2.5-2.5h33.2c1.4,0,2.5,1.1,2.5,2.5S1789.5-110,1788.1-110z"
	/>
<path class="st0" d="M1916.3-87.9h-50.1c-1.4,0-2.5-1.1-2.5-2.5v-19.4l-3.4-4.6c-3.6-4.8-3.5-11.5,0.2-16.3
	c2.9-3.7,7.6-5.6,12.2-5.1l31.5,3.9l14.4-36.6c1.1-2.9,3.5-5.2,6.4-6.3c2.9-1.1,6.2-0.9,9,0.5c5.1,2.6,7.4,8.8,5.3,14.1l-20.5,50
	v19.7C1918.8-89.1,1917.7-87.9,1916.3-87.9z M1868.7-92.9h45.1v-17.7c0-0.3,0.1-0.6,0.2-0.9l20.7-50.5c1.2-2.9-0.1-6.4-2.9-7.8
	c-1.6-0.8-3.3-0.9-5-0.3c-1.6,0.6-2.9,1.9-3.5,3.5l-15.1,38.4c-0.4,1.1-1.5,1.7-2.6,1.6l-33.5-4.1c-2.9-0.4-5.9,0.9-7.7,3.2
	c-2.3,3-2.4,7.2-0.1,10.2l3.9,5.3c0.3,0.4,0.5,1,0.5,1.5V-92.9z"/>
<path class="st0" d="M1908.1-97.5h-33.2c-1.4,0-2.5-1.1-2.5-2.5s1.1-2.5,2.5-2.5h33.2c1.4,0,2.5,1.1,2.5,2.5
	S1909.5-97.5,1908.1-97.5z"/>
<path class="st1" d="M571.1-160.2c0-4.3,3.5-7.8,7.8-7.8s7.8,3.5,7.8,7.8"/>
<line class="st1" x1="572.5" y1="-176.5" x2="576.5" y2="-167.7"/>
<line class="st1" x1="582" y1="-167.7" x2="586.1" y2="-176.5"/>
<path class="st3" d="M548.3-240.3c-0.6,0-1.3-0.2-1.8-0.7c-1-1-1-2.6,0-3.5l3.1-3.1c1-1,2.6-1,3.5,0c1,1,1,2.6,0,3.5l-3.1,3.1
	C549.6-240.6,548.9-240.3,548.3-240.3z"/>
<path class="st3" d="M608.6-240.3c-0.6,0-1.3-0.2-1.8-0.7l-3.1-3.1c-1-1-1-2.6,0-3.5c1-1,2.6-1,3.5,0l3.1,3.1c1,1,1,2.6,0,3.5
	C609.9-240.6,609.2-240.3,608.6-240.3z"/>
<path class="st3" d="M863.5-306.9h-88.9c-1.4,0-2.5-1.1-2.5-2.5s1.1-2.5,2.5-2.5h88.9c1.4,0,2.5,1.1,2.5,2.5
	S864.9-306.9,863.5-306.9z"/>
<path class="st3" d="M819.8-240.7c-1.4,0-2.5-1.1-2.5-2.5v-18.2c0-1.4,1.1-2.5,2.5-2.5s2.5,1.1,2.5,2.5v18.2
	C822.3-241.8,821.2-240.7,819.8-240.7z"/>
<path class="st3" d="M849.3-246.5c-0.6,0-1.3-0.2-1.8-0.7l-12.8-12.8c-1-1-1-2.6,0-3.5c1-1,2.6-1,3.5,0l12.8,12.8c1,1,1,2.6,0,3.5
	C850.6-246.7,849.9-246.5,849.3-246.5z"/>
<path class="st3" d="M790.8-246.5c-0.6,0-1.3-0.2-1.8-0.7c-1-1-1-2.6,0-3.5l12.8-12.8c1-1,2.6-1,3.5,0c1,1,1,2.6,0,3.5l-12.8,12.8
	C792.1-246.7,791.5-246.5,790.8-246.5z"/>
<path class="st3" d="M818.8-268.7c-21.9,0-39.6-17.8-39.6-39.6c0-1.4,1.1-2.5,2.5-2.5s2.5,1.1,2.5,2.5c0,19.1,15.5,34.6,34.6,34.6
	s34.6-15.5,34.6-34.6c0-1.4,1.1-2.5,2.5-2.5s2.5,1.1,2.5,2.5C858.5-286.5,840.7-268.7,818.8-268.7z"/>
<path class="st3" d="M1329.9-247.7c-0.6,0-1.3-0.2-1.8-0.7l-70.3-70.3c-1-1-1-2.6,0-3.5c1-1,2.6-1,3.5,0l70.3,70.3c1,1,1,2.6,0,3.5
	C1331.2-247.9,1330.6-247.7,1329.9-247.7z"/>
<path class="st3" d="M458.9-236.9c-24.1,0-43.8-19.6-43.8-43.8c0-18.2,11-34.2,27.9-40.8c1.3-0.5,2.7,0.1,3.2,1.4
	c0.5,1.3-0.1,2.7-1.4,3.2c-15,5.8-24.7,20-24.7,36.1c0,21.4,17.4,38.8,38.8,38.8s38.8-17.4,38.8-38.8c0-15.9-9.5-30-24.3-36
	c-1.3-0.5-1.9-2-1.4-3.3c0.5-1.3,2-1.9,3.3-1.4c16.7,6.7,27.4,22.6,27.4,40.6C502.7-256.5,483-236.9,458.9-236.9z"/>
<path class="st3" d="M458.9-270.6c-1.4,0-2.5-1.1-2.5-2.5v-53.8c0-1.4,1.1-2.5,2.5-2.5s2.5,1.1,2.5,2.5v53.8
	C461.4-271.7,460.3-270.6,458.9-270.6z"/>
<path class="st3" d="M621.7-245.2h-85.6c-1.4,0-2.5-1.1-2.5-2.5v-63.9c0-1.4,1.1-2.5,2.5-2.5h85.6c1.4,0,2.5,1.1,2.5,2.5v63.9
	C624.2-246.3,623.1-245.2,621.7-245.2z M538.6-250.2h80.6v-58.9h-80.6V-250.2z"/>
<g>
	<text transform="matrix(1 0 0 1 574.494 -267.214)" class="st3" style="font-family:'BernardMT-Condensed'; font-size:32.8555px;">i</text>
</g>
<path class="st3" d="M739.2-243.4h-80.6c-1.4,0-2.5-1.1-2.5-2.5v-65.7c0-1.4,1.1-2.5,2.5-2.5h80.6c1.4,0,2.5,1.1,2.5,2.5v65.7
	C741.7-244.5,740.6-243.4,739.2-243.4z M661.1-248.4h75.6v-60.7h-75.6V-248.4z"/>
<path class="st3" d="M669.6-286.4c-0.6,0-1.1-0.2-1.6-0.6c-1.1-0.9-1.2-2.5-0.3-3.5l9.5-11.4c0.9-1.1,2.5-1.2,3.5-0.3
	c1.1,0.9,1.2,2.5,0.3,3.5l-9.5,11.4C671-286.7,670.3-286.4,669.6-286.4z"/>
<path class="st3" d="M671.8-270.4c-0.5,0-1.1-0.2-1.6-0.5c-1.1-0.9-1.3-2.4-0.4-3.5l21.1-26.6c0.9-1.1,2.4-1.3,3.5-0.4
	c1.1,0.9,1.3,2.4,0.4,3.5l-21.1,26.6C673.2-270.8,672.5-270.4,671.8-270.4z"/>
<path class="st3" d="M1511.6-289.9c-0.6,0-1.1-0.2-1.6-0.6c-1.1-0.9-1.2-2.5-0.3-3.5l7.8-9.3c0.9-1.1,2.5-1.2,3.5-0.3
	s1.2,2.5,0.3,3.5l-7.8,9.3C1513-290.2,1512.3-289.9,1511.6-289.9z"/>
<path class="st3" d="M1515.5-274.1c-0.5,0-1.1-0.2-1.6-0.5c-1.1-0.9-1.3-2.4-0.4-3.5l17.3-21.8c0.9-1.1,2.4-1.3,3.5-0.4
	c1.1,0.9,1.3,2.4,0.4,3.5l-17.3,21.8C1517-274.5,1516.2-274.1,1515.5-274.1z"/>
<path class="st3" d="M945.4-243.2H934c-1.4,0-2.5-1.1-2.5-2.5v-74.9c0-1.4,1.1-2.5,2.5-2.5h11.4c1.4,0,2.5,1.1,2.5,2.5v74.9
	C947.9-244.3,946.8-243.2,945.4-243.2z M936.5-248.2h6.4v-69.9h-6.4V-248.2z"/>
<path class="st3" d="M907.1-313.7c-1.6,0-2.9-1.3-2.9-2.9s1.3-2.9,2.9-2.9s2.9,1.3,2.9,2.9S908.7-313.7,907.1-313.7z M907.1-318.7
	c-1.2,0-2.1,0.9-2.1,2.1s0.9,2.1,2.1,2.1s2.1-0.9,2.1-2.1S908.2-318.7,907.1-318.7z"/>
<path class="st3" d="M917.7-296.5c-3.9,0-7.2-3.2-7.2-7.2c0-3.9,3.2-7.2,7.2-7.2s7.2,3.2,7.2,7.2
	C924.8-299.8,921.6-296.5,917.7-296.5z M917.7-305.9c-1.2,0-2.2,1-2.2,2.2c0,1.2,1,2.2,2.2,2.2s2.2-1,2.2-2.2
	C919.8-304.9,918.9-305.9,917.7-305.9z"/>
<path class="st3" d="M900.6-284.1c-3.2,0-5.8-2.6-5.8-5.8s2.6-5.8,5.8-5.8s5.8,2.6,5.8,5.8S903.8-284.1,900.6-284.1z M900.6-290.7
	c-0.4,0-0.8,0.4-0.8,0.8s0.4,0.8,0.8,0.8c0.4,0,0.8-0.4,0.8-0.8S901-290.7,900.6-290.7z"/>
<path class="st3" d="M917.7-270.5c-2.3,0-4.1-1.9-4.1-4.1s1.9-4.1,4.1-4.1s4.1,1.9,4.1,4.1S920-270.5,917.7-270.5z M917.7-275.5
	c-0.5,0-0.9,0.4-0.9,0.9c0,0.5,0.4,0.9,0.9,0.9c0.5,0,0.9-0.4,0.9-0.9C918.5-275.1,918.1-275.5,917.7-275.5z"/>
<path class="st3" d="M904.8-248.1c-4.6,0-8.4-3.8-8.4-8.4s3.8-8.4,8.4-8.4s8.4,3.8,8.4,8.4S909.5-248.1,904.8-248.1z M904.8-260
	c-1.9,0-3.4,1.5-3.4,3.4s1.5,3.4,3.4,3.4s3.4-1.5,3.4-3.4S906.7-260,904.8-260z"/>
<path class="st3" d="M960.1-286c1.8-0.3,3.6,0.3,5.2,1.2c2.9,1.6,5.8,2.5,9,0.8c1.1-0.6,2.4-0.6,3.1,0.6c1,1.7-0.7,2.5-1.7,3
	c-3.7,1.9-7.4,1.7-11-0.4c-2.4-1.4-5-1.9-7.6-0.7c-1.5,0.6-3.2,1.1-3.9-0.7c-0.7-1.9,1.2-2.4,2.5-3
	C957.1-285.8,958.5-286.1,960.1-286z"/>
<path class="st3" d="M971.9-301c-3,0.1-4.8-0.1-6.5-1c-3-1.7-6.1-2.7-9.4-0.7c-1.3,0.8-2.3,0.2-2.9-0.8c-0.8-1.4,0.4-2.1,1.4-2.7
	c3.6-2,7.3-2,10.9-0.1c2.6,1.4,5.3,2,8.1,0.9c1.5-0.6,3.1-1.2,3.8,0.6c0.9,2.3-1.4,2.7-2.8,3.2C973.4-301.1,972-301,971.9-301z"/>
<path class="st3" d="M960.5-264.4c2.1,0.1,4,0.6,5.7,1.6c2.4,1.4,5,1.7,7.6,0.5c1.5-0.7,3-1.2,3.7,0.7c0.7,2-1.2,2.6-2.5,3
	c-3.4,1.2-6.8,1.2-10.1-0.5c-2.6-1.4-5.3-1.9-8.1-0.7c-1.6,0.7-3.1,1-3.7-0.8c-0.6-1.9,1.2-2.5,2.6-3
	C957.2-264,958.8-264.1,960.5-264.4z"/>
<path class="st3" d="M1058.9-235.5c-26.5,0-48-21.5-48-48s21.5-48,48-48c1.4,0,2.5,1.1,2.5,2.5v22.7c0,1.4-1.1,2.5-2.5,2.5
	s-2.5-1.1-2.5-2.5v-20.2c-22.5,1.3-40.5,20.1-40.5,42.9c0,23.7,19.3,43,43,43s43-19.3,43-43c0-17.5-10.5-33.2-26.7-39.8
	c-1.3-0.5-1.9-2-1.4-3.3s2-1.9,3.3-1.4c18.1,7.4,29.8,24.9,29.8,44.4C1106.9-257.1,1085.4-235.5,1058.9-235.5z"/>
<path class="st3" d="M1076.1-269.3h-34.5c-1.4,0-2.5-1.1-2.5-2.5v-19.1c0-9.8,8-17.9,17.9-17.9h3.8c9.8,0,17.9,8,17.9,17.9v19.1
	C1078.6-270.4,1077.5-269.3,1076.1-269.3z M1044.2-274.3h29.5v-16.6c0-7.1-5.8-12.9-12.9-12.9h-3.8c-7.1,0-12.9,5.8-12.9,12.9
	V-274.3z"/>
<path class="st3" d="M1049.9-251c-1.4,0-2.5-1.1-2.5-2.5v-11.2c0-1.4,1.1-2.5,2.5-2.5s2.5,1.1,2.5,2.5v11.2
	C1052.4-252.2,1051.2-251,1049.9-251z"/>
<path class="st3" d="M1068.7-251c-1.4,0-2.5-1.1-2.5-2.5v-11.2c0-1.4,1.1-2.5,2.5-2.5s2.5,1.1,2.5,2.5v11.2
	C1071.2-252.2,1070.1-251,1068.7-251z"/>
<path class="st3" d="M1179-314.1c-1.4,0-2.5-1.1-2.5-2.5v-11.2c0-1.4,1.1-2.5,2.5-2.5s2.5,1.1,2.5,2.5v11.2
	C1181.5-315.2,1180.4-314.1,1179-314.1z"/>
<path class="st3" d="M1179-235.1c-1.4,0-2.5-1.1-2.5-2.5v-11.2c0-1.4,1.1-2.5,2.5-2.5s2.5,1.1,2.5,2.5v11.2
	C1181.5-236.2,1180.4-235.1,1179-235.1z"/>
<path class="st3" d="M1054.9-277.1c-0.6,0-1.3-0.2-1.8-0.7c-1-1-1-2.6,0-3.5l5.9-5.9h-6.2c-1,0-1.9-0.6-2.3-1.5
	c-0.4-0.9-0.2-2,0.5-2.7l8.3-8.8c0.9-1,2.5-1,3.5-0.1c1,0.9,1,2.5,0.1,3.5l-4.3,4.6h6.4c1,0,1.9,0.6,2.3,1.5c0.4,0.9,0.2,2-0.5,2.7
	l-10.1,10.1C1056.1-277.3,1055.5-277.1,1054.9-277.1z"/>
<path class="st3" d="M1179-253.2c-16.1,0-29.2-13.1-29.2-29.2c0-16.1,13.1-29.2,29.2-29.2s29.2,13.1,29.2,29.2
	C1208.2-266.3,1195.1-253.2,1179-253.2z M1179-306.6c-13.3,0-24.2,10.9-24.2,24.2s10.9,24.2,24.2,24.2s24.2-10.9,24.2-24.2
	S1192.4-306.6,1179-306.6z"/>
<path class="st3" d="M1224.1-279.9h-11.2c-1.4,0-2.5-1.1-2.5-2.5s1.1-2.5,2.5-2.5h11.2c1.4,0,2.5,1.1,2.5,2.5
	S1225.5-279.9,1224.1-279.9z"/>
<path class="st3" d="M1145.1-279.9h-11.2c-1.4,0-2.5-1.1-2.5-2.5s1.1-2.5,2.5-2.5h11.2c1.4,0,2.5,1.1,2.5,2.5
	S1146.5-279.9,1145.1-279.9z"/>
<path class="st3" d="M1210.9-248.3c-0.6,0-1.3-0.2-1.8-0.7l-7.9-7.9c-1-1-1-2.6,0-3.5c1-1,2.6-1,3.5,0l7.9,7.9c1,1,1,2.6,0,3.5
	C1212.2-248.5,1211.5-248.3,1210.9-248.3z"/>
<path class="st3" d="M1155-304.2c-0.6,0-1.3-0.2-1.8-0.7l-7.9-7.9c-1-1-1-2.6,0-3.5c1-1,2.6-1,3.5,0l7.9,7.9c1,1,1,2.6,0,3.5
	C1156.3-304.4,1155.7-304.2,1155-304.2z"/>
<path class="st3" d="M1203.4-304.6c-0.6,0-1.3-0.2-1.8-0.7c-1-1-1-2.6,0-3.5l7.9-7.9c1-1,2.6-1,3.5,0c1,1,1,2.6,0,3.5l-7.9,7.9
	C1204.7-304.8,1204.1-304.6,1203.4-304.6z"/>
<path class="st3" d="M1147-248c-0.6,0-1.3-0.2-1.8-0.7c-1-1-1-2.6,0-3.5l7.9-7.9c1-1,2.6-1,3.5,0c1,1,1,2.6,0,3.5l-7.9,7.9
	C1148.3-248.3,1147.7-248,1147-248z"/>
<path class="st3" d="M1311.6-279.3c-1.4,0-2.5-1.1-2.5-2.5v-37.6l-16.9,16.9c-1,1-2.6,1-3.5,0c-1-1-1-2.6,0-3.5l21.1-21.1
	c0.7-0.7,1.8-0.9,2.7-0.5c0.9,0.4,1.5,1.3,1.5,2.3v43.7C1314.1-280.4,1313-279.3,1311.6-279.3z"/>
<path class="st3" d="M1311.6-236.8c-0.7,0-1.3-0.3-1.8-0.7l-30.5-30.5h-23.2c-1.4,0-2.5-1.1-2.5-2.5v-25.8c0-1.4,1.1-2.5,2.5-2.5
	h26.3c1.4,0,2.5,1.1,2.5,2.5s-1.1,2.5-2.5,2.5h-23.8v20.8h21.7c0.7,0,1.3,0.3,1.8,0.7l27,27v-22c0-1.4,1.1-2.5,2.5-2.5
	s2.5,1.1,2.5,2.5v28.1c0,1-0.6,1.9-1.5,2.3C1312.3-236.9,1312-236.8,1311.6-236.8z"/>
<path class="st3" d="M1343.1-279.3H1332c-1.4,0-2.5-1.1-2.5-2.5s1.1-2.5,2.5-2.5h11.2c1.4,0,2.5,1.1,2.5,2.5
	S1344.5-279.3,1343.1-279.3z"/>
<path class="st3" d="M1322.5-304c-0.6,0-1.3-0.2-1.8-0.7c-1-1-1-2.6,0-3.5l7.9-7.9c1-1,2.6-1,3.5,0c1,1,1,2.6,0,3.5l-7.9,7.9
	C1323.7-304.2,1323.1-304,1322.5-304z"/>
<path class="st3" d="M1386.2-238.5c-5.2,0-9.4-4.2-9.4-9.4s4.2-9.4,9.4-9.4s9.4,4.2,9.4,9.4S1391.4-238.5,1386.2-238.5z
	 M1386.2-252.2c-2.4,0-4.4,2-4.4,4.4s2,4.4,4.4,4.4s4.4-2,4.4-4.4S1388.6-252.2,1386.2-252.2z"/>
<path class="st3" d="M1408.4-248.3c-1.3,0-2.3-0.9-2.5-2.2c-1.1-9.5-8.7-17.1-18.3-18c-1.4-0.1-2.4-1.4-2.3-2.7
	c0.1-1.4,1.4-2.4,2.7-2.3c11.9,1.1,21.4,10.5,22.8,22.4c0.2,1.4-0.8,2.6-2.2,2.8C1408.6-248.3,1408.5-248.3,1408.4-248.3z"/>
<path class="st3" d="M1426.8-248.8c-1.3,0-2.5-1.1-2.5-2.4c-0.5-19.9-16.6-35.8-36.5-36.2c-1.4,0-2.5-1.2-2.5-2.5
	c0-1.4,1.2-2.5,2.5-2.5c22.6,0.4,40.8,18.4,41.4,41C1429.4-250,1428.3-248.8,1426.8-248.8C1426.9-248.8,1426.8-248.8,1426.8-248.8z"
	/>
<path class="st3" d="M1446.3-248.3c-1.3,0-2.4-1-2.5-2.3c-1.9-30-26.1-54.1-56.1-56.1c-1.4-0.1-2.4-1.3-2.3-2.7
	c0.1-1.4,1.3-2.4,2.7-2.3c32.5,2.1,58.6,28.3,60.7,60.8c0.1,1.4-1,2.6-2.3,2.7C1446.4-248.3,1446.4-248.3,1446.3-248.3z"/>
<path class="st3" d="M1539.8-235.9c-0.4,0-0.9-0.1-1.2-0.3l-26.3-15.2c-8.5-4.9-13.7-14-13.7-23.8v-30.3c0-0.9,0.5-1.7,1.2-2.2
	l38.7-22.4c0.8-0.4,1.7-0.4,2.5,0l38.7,22.4c0.8,0.4,1.2,1.3,1.2,2.2v30.3c0,9.8-5.3,18.9-13.7,23.8l-26.3,15.2
	C1540.6-236,1540.2-235.9,1539.8-235.9z M1503.5-304v28.9c0,8,4.3,15.4,11.2,19.4l25,14.4l25-14.4c6.9-4,11.2-11.4,11.2-19.4V-304
	l-36.2-20.9L1503.5-304z"/>
<path class="st3" d="M1539.8-319l30.3,17.5v25c0,6.2-3.3,11.9-8.7,15l-21.6,12.5V-319z"/>
<path class="st3" d="M1689.2-240.3h-50.1c-1.4,0-2.5-1.1-2.5-2.5v-19.7l-20.5-50c-2.2-5.3,0.1-11.5,5.3-14.2c2.8-1.4,6.1-1.6,9-0.5
	c2.9,1.1,5.3,3.4,6.4,6.3l14.4,36.6l31.5-3.9c4.7-0.6,9.3,1.4,12.2,5.1c3.7,4.8,3.8,11.5,0.2,16.3l-3.4,4.6v19.4
	C1691.7-241.4,1690.6-240.3,1689.2-240.3z M1641.6-245.3h45.1v-17.7c0-0.5,0.2-1.1,0.5-1.5l3.9-5.3c2.3-3,2.2-7.2-0.1-10.2
	c-1.8-2.3-4.8-3.5-7.7-3.2l-33.5,4.1c-1.1,0.1-2.2-0.5-2.6-1.6l-15.1-38.4c-0.6-1.6-1.9-2.9-3.5-3.5c-1.6-0.6-3.4-0.5-4.9,0.3
	c-2.8,1.4-4.1,4.9-2.9,7.8l20.7,50.5c0.1,0.3,0.2,0.6,0.2,0.9V-245.3z"/>
<path class="st3" d="M1680.5-261.4h-33.2c-1.4,0-2.5-1.1-2.5-2.5s1.1-2.5,2.5-2.5h33.2c1.4,0,2.5,1.1,2.5,2.5
	S1681.9-261.4,1680.5-261.4z"/>
<path class="st3" d="M1796.3-240.3h-50.1c-1.4,0-2.5-1.1-2.5-2.5v-19.4l-3.4-4.6c-3.6-4.8-3.5-11.5,0.2-16.3
	c2.9-3.7,7.6-5.6,12.2-5.1l31.5,3.9l14.4-36.6c1.1-2.9,3.5-5.2,6.4-6.3c2.9-1.1,6.2-0.9,9,0.5c5.1,2.6,7.4,8.8,5.3,14.2l-20.5,50
	v19.7C1798.8-241.4,1797.7-240.3,1796.3-240.3z M1748.7-245.3h45.1v-17.7c0-0.3,0.1-0.6,0.2-0.9l20.7-50.5c1.2-2.9-0.1-6.4-2.9-7.8
	c-1.6-0.8-3.3-0.9-5-0.3c-1.6,0.6-2.9,1.9-3.5,3.5l-15.1,38.4c-0.4,1.1-1.5,1.7-2.6,1.6l-33.5-4.1c-2.9-0.4-5.9,0.9-7.7,3.2
	c-2.3,3-2.4,7.2-0.1,10.2l3.9,5.3c0.3,0.4,0.5,1,0.5,1.5V-245.3z"/>
<path class="st3" d="M1788.1-261.4h-33.2c-1.4,0-2.5-1.1-2.5-2.5s1.1-2.5,2.5-2.5h33.2c1.4,0,2.5,1.1,2.5,2.5
	S1789.5-261.4,1788.1-261.4z"/>
<path class="st3" d="M1916.3-239.3h-50.1c-1.4,0-2.5-1.1-2.5-2.5v-19.4l-3.4-4.6c-3.6-4.8-3.5-11.5,0.2-16.3
	c2.9-3.7,7.6-5.6,12.2-5.1l31.5,3.9l14.4-36.6c1.1-2.9,3.5-5.2,6.4-6.3c2.9-1.1,6.2-0.9,9,0.5c5.1,2.6,7.4,8.8,5.3,14.1l-20.5,50
	v19.7C1918.8-240.5,1917.7-239.3,1916.3-239.3z M1868.7-244.3h45.1V-262c0-0.3,0.1-0.6,0.2-0.9l20.7-50.5c1.2-2.9-0.1-6.4-2.9-7.8
	c-1.6-0.8-3.3-0.9-5-0.3c-1.6,0.6-2.9,1.9-3.5,3.5l-15.1,38.4c-0.4,1.1-1.5,1.7-2.6,1.6l-33.5-4.1c-2.9-0.4-5.9,0.9-7.7,3.2
	c-2.3,3-2.4,7.2-0.1,10.2l3.9,5.3c0.3,0.4,0.5,1,0.5,1.5V-244.3z"/>
<path class="st3" d="M1908.1-248.9h-33.2c-1.4,0-2.5-1.1-2.5-2.5s1.1-2.5,2.5-2.5h33.2c1.4,0,2.5,1.1,2.5,2.5
	S1909.5-248.9,1908.1-248.9z"/>
<path class="st3" d="M586.7-309.1c-1.4,0-2.5-1.1-2.5-2.5c0-2.9-2.4-5.3-5.3-5.3s-5.3,2.4-5.3,5.3c0,1.4-1.1,2.5-2.5,2.5
	s-2.5-1.1-2.5-2.5c0-5.7,4.6-10.3,10.3-10.3s10.3,4.6,10.3,10.3C589.2-310.2,588.1-309.1,586.7-309.1z"/>
<path class="st3" d="M576.5-316.6c-0.9,0-1.9-0.5-2.3-1.5l-4-8.8c-0.6-1.3,0-2.7,1.2-3.3c1.3-0.6,2.7,0,3.3,1.2l4,8.8
	c0.6,1.3,0,2.7-1.2,3.3C577.2-316.7,576.9-316.6,576.5-316.6z"/>
<path class="st3" d="M582-316.6c-0.3,0-0.7-0.1-1-0.2c-1.3-0.6-1.8-2.1-1.2-3.3l4-8.8c0.6-1.3,2.1-1.8,3.3-1.2
	c1.3,0.6,1.8,2.1,1.2,3.3l-4,8.8C583.9-317.1,583-316.6,582-316.6z"/>
<path class="st3" d="M314-242.7c-1.3,0-2.7-0.6-3.6-1.7c-1.5-2-1.2-4.8,0.8-6.3l41.9-32.4l-41.9-32.4c-2-1.5-2.3-4.3-0.8-6.3
	c1.5-2,4.3-2.3,6.3-0.8l46.5,36c1.1,0.9,1.7,2.2,1.7,3.6s-0.6,2.7-1.7,3.6l-46.5,36C316-243,315-242.7,314-242.7z"/>
<path class="st3" d="M73.3,90.5c-1,0-1.9-0.3-2.7-0.9L24,53.6c-1.1-0.9-1.7-2.2-1.7-3.6s0.6-2.7,1.7-3.6l46.5-36
	c2-1.5,4.8-1.2,6.3,0.8c1.5,2,1.2,4.8-0.8,6.3L34.1,50L76,82.4c2,1.5,2.3,4.3,0.8,6.3C75.9,89.9,74.6,90.5,73.3,90.5z"/>
<g>
	<path class="st3" d="M157-316.7v30.2h27.1c2.4,0,4.4,2,4.4,4.4l0,0c0,2.4-2,4.4-4.4,4.4H157v30.5c0,2.4-2,4.4-4.4,4.4h-0.1
		c-2.4,0-4.4-2-4.4-4.4v-30.5h-27.1c-2.4,0-4.4-2-4.4-4.4l0,0c0-2.4,2-4.4,4.4-4.4h27.1v-30.2c0-2.4,2-4.4,4.4-4.4h0.1
		C155.1-321.1,157-319.2,157-316.7z"/>
</g>
<g>
	<path class="st3" d="M68.6-282.6L68.6-282.6c0,2.6-2.1,4.8-4.8,4.8H14.9c-2.6,0-4.8-2.1-4.8-4.8l0,0c0-2.6,2.1-4.8,4.8-4.8h48.9
		C66.4-287.4,68.6-285.3,68.6-282.6z"/>
</g>
<path class="st0" d="M314-88.1c-1.3,0-2.7-0.6-3.6-1.7c-1.5-2-1.2-4.8,0.8-6.3l41.9-32.4l-41.9-32.4c-2-1.5-2.3-4.3-0.8-6.3
	c1.5-2,4.3-2.3,6.3-0.8l46.5,36c1.1,0.9,1.7,2.2,1.7,3.6s-0.6,2.7-1.7,3.6l-46.5,36C316-88.4,315-88.1,314-88.1z"/>
<path class="st0" d="M271.4-88.1c-1,0-1.9-0.3-2.7-0.9l-46.5-36c-1.1-0.9-1.7-2.2-1.7-3.6s0.6-2.7,1.7-3.6l46.5-36
	c2-1.5,4.8-1.2,6.3,0.8c1.5,2,1.2,4.8-0.8,6.3l-41.9,32.4l41.9,32.4c2,1.5,2.3,4.3,0.8,6.3C274.1-88.7,272.7-88.1,271.4-88.1z"/>
<g>
	<path class="st0" d="M157-162.1v30.2h27.1c2.4,0,4.4,2,4.4,4.4v0c0,2.4-2,4.4-4.4,4.4H157v30.5c0,2.4-2,4.4-4.4,4.4h-0.1
		c-2.4,0-4.4-2-4.4-4.4v-30.5h-27.1c-2.4,0-4.4-2-4.4-4.4v0c0-2.4,2-4.4,4.4-4.4h27.1v-30.2c0-2.4,2-4.4,4.4-4.4h0.1
		C155.1-166.5,157-164.5,157-162.1z"/>
</g>
<g>
	<path class="st0" d="M68.6-128L68.6-128c0,2.6-2.1,4.8-4.8,4.8H14.9c-2.6,0-4.8-2.1-4.8-4.8l0,0c0-2.6,2.1-4.8,4.8-4.8h48.9
		C66.4-132.8,68.6-130.7,68.6-128z"/>
</g>
</svg>
